<svg width="20" height="19" viewBox="0 0 20 19" fill="none" xmlns="http://www.w3.org/2000/svg">
<path d="M14.3711 18.5246H10.1401C9.31465 18.5254 8.49571 18.3782 7.72216 18.09L4.42626 16.8659C4.24574 16.7971 4.09972 16.6598 4.01999 16.4838C3.94026 16.3078 3.93329 16.1075 4.00059 15.9264C4.06788 15.7453 4.204 15.5981 4.3793 15.5169C4.55459 15.4357 4.75487 15.4271 4.93651 15.4929L8.23192 16.717C8.8425 16.9439 9.48876 17.0596 10.1401 17.0588H14.3711C14.5551 17.0588 14.7316 16.9857 14.8617 16.8556C14.9918 16.7254 15.0649 16.549 15.0649 16.3649C15.0649 16.1809 14.9918 16.0044 14.8617 15.8743C14.7316 15.7442 14.5551 15.6711 14.3711 15.6711C14.1768 15.6711 13.9905 15.5939 13.8532 15.4566C13.7158 15.3192 13.6387 15.1329 13.6387 14.9387C13.6387 14.7444 13.7158 14.5581 13.8532 14.4208C13.9905 14.2834 14.1768 14.2062 14.3711 14.2062H15.3696C15.5536 14.2062 15.7301 14.1331 15.8602 14.003C15.9904 13.8729 16.0635 13.6964 16.0635 13.5124C16.0635 13.3284 15.9904 13.1519 15.8602 13.0218C15.7301 12.8916 15.5536 12.8185 15.3696 12.8185C15.1754 12.8185 14.9891 12.7414 14.8517 12.604C14.7144 12.4667 14.6372 12.2804 14.6372 12.0861C14.6372 11.8919 14.7144 11.7056 14.8517 11.5682C14.9891 11.4309 15.1754 11.3537 15.3696 11.3537H16.3677C16.5049 11.3537 16.6391 11.3131 16.7532 11.2368C16.8674 11.1606 16.9563 11.0522 17.0089 10.9254C17.0614 10.7986 17.0752 10.6591 17.0484 10.5244C17.0216 10.3898 16.9555 10.2662 16.8584 10.1691C16.7941 10.1044 16.7177 10.0531 16.6334 10.0183C16.5492 9.9834 16.4588 9.96563 16.3677 9.96601C16.1734 9.96601 15.9871 9.88884 15.8498 9.75149C15.7124 9.61413 15.6352 9.42784 15.6352 9.23359C15.6352 9.03934 15.7124 8.85304 15.8498 8.71569C15.9871 8.57833 16.1734 8.50116 16.3677 8.50116H17.3662C17.5032 8.50072 17.6371 8.4597 17.7509 8.38328C17.8646 8.30686 17.9532 8.19845 18.0054 8.07174C18.0577 7.94503 18.0712 7.8057 18.0443 7.6713C18.0175 7.53691 17.9514 7.41348 17.8545 7.31659C17.7906 7.25211 17.7145 7.20092 17.6307 7.16598C17.5469 7.13103 17.457 7.11302 17.3662 7.11298H10.4502C10.3227 7.11314 10.1974 7.08003 10.0867 7.01694C9.97596 6.95384 9.8836 6.86294 9.81875 6.75321C9.7539 6.64349 9.71881 6.51874 9.71694 6.3913C9.71507 6.26386 9.74649 6.13813 9.80809 6.02656C10.0306 5.57513 10.1821 5.09207 10.2573 4.59443C10.4228 3.52656 10.2187 2.56122 9.65087 1.72529C9.57776 1.62117 9.47344 1.543 9.35298 1.50209C9.23252 1.46117 9.10217 1.45963 8.98078 1.49768C8.85939 1.53574 8.75324 1.61142 8.6777 1.71377C8.60215 1.81613 8.56112 1.93987 8.56053 2.06708C8.58446 4.57587 7.42528 6.39911 5.20848 7.34052C5.11961 7.38027 5.0237 7.4019 4.92636 7.40415C4.82902 7.4064 4.73222 7.38922 4.6416 7.35361C4.55098 7.318 4.46837 7.26469 4.3986 7.19678C4.32883 7.12887 4.2733 7.04773 4.23526 6.95811C4.19721 6.86849 4.17742 6.77218 4.17704 6.67482C4.17665 6.57746 4.19568 6.48099 4.23302 6.39107C4.27035 6.30115 4.32524 6.21958 4.39447 6.15112C4.4637 6.08267 4.54589 6.0287 4.63622 5.99238C5.55028 5.60175 6.2163 5.02802 6.6162 4.27949C6.94237 3.66865 7.10448 2.92939 7.09618 2.08222C7.08886 1.15644 7.65966 0.375189 8.54735 0.098822C9.43505 -0.177545 10.3447 0.136908 10.8642 0.902533C12.0708 2.67792 11.853 4.5207 11.5224 5.64911H17.3662C17.8533 5.64918 18.326 5.81397 18.7076 6.1167C19.0892 6.41944 19.3572 6.84233 19.468 7.31664C19.5788 7.79095 19.526 8.2888 19.3181 8.72928C19.1101 9.16975 18.7594 9.52697 18.3227 9.74286C18.562 10.2545 18.5916 10.8394 18.405 11.3725C18.2185 11.9056 17.8307 12.3446 17.3247 12.5954C17.5641 13.1071 17.5936 13.6922 17.407 14.2255C17.2204 14.7587 16.8324 15.1977 16.3262 15.4484C16.4803 15.7774 16.549 16.1399 16.5259 16.5024C16.5028 16.865 16.3885 17.2158 16.1938 17.5225C15.9991 17.8292 15.7302 18.0818 15.4119 18.257C15.0936 18.4322 14.7363 18.5242 14.373 18.5246H14.3711Z" fill="black"/>
<path d="M4.92529 17.4401H0.732422C0.538171 17.4401 0.351877 17.363 0.214521 17.2256C0.0771657 17.0883 0 16.902 0 16.7077V6.66718C0 6.47293 0.0771657 6.28663 0.214521 6.14928C0.351877 6.01192 0.538171 5.93475 0.732422 5.93475H4.92529C5.11954 5.93475 5.30584 6.01192 5.44319 6.14928C5.58055 6.28663 5.65772 6.47293 5.65772 6.66718V16.7077C5.65772 16.902 5.58055 17.0883 5.44319 17.2256C5.30584 17.363 5.11954 17.4401 4.92529 17.4401ZM1.46631 15.9753H4.19287V7.3996H1.46484L1.46631 15.9753Z" fill="black"/>
</svg>
