<svg width="214" height="50" viewBox="0 0 214 50" fill="none" xmlns="http://www.w3.org/2000/svg">
<g filter="url(#filter0_b)">
<g filter="url(#filter1_d)">
<path d="M11.496 37L6.57049 31.9788V6.77733L11.5917 1.75616H28.3289L33.2066 6.63387L30.433 9.45529L26.6074 5.62963H13.5523L10.9222 8.25977V30.4964L13.5523 33.1265H24.1207L29.5722 28.0575V22.3191H21.4427V18.4934H33.2066V37H29.5722V32.9352L25.2206 37H11.496ZM37.9857 37L49.893 1.75616H56.6357L68.5431 37H64.0001L60.9874 27.8184H45.5413L42.5765 37H37.9857ZM46.8325 23.9928H59.7441L53.8143 5.86874H52.7145L46.8325 23.9928ZM73.3726 37V1.75616H79.3024L90.3968 29.9225L101.539 1.75616H107.517V37H103.117V8.40323L91.6401 37H89.2013L77.7243 8.45105V37H73.3726ZM115.776 37V1.75616H139.017V5.77309H120.128V16.4849H137.008V20.454H120.128V32.9831H139.017V37H115.776ZM145.664 37V1.75616H164.936L169.909 6.77733V18.0152L164.936 23.0364H164.792L171.152 37H166.323L160.058 23.0364H150.016V37H145.664ZM150.016 19.1629H162.975L165.557 16.5327V8.25977L162.975 5.62963H150.016V19.1629ZM177.561 37V32.9831H194.92L197.502 30.3529V23.3233L194.92 20.6931H181.291L176.318 15.7198V6.77733L181.291 1.75616H200.037V5.77309H183.252L180.622 8.40323L180.67 14.2374L183.252 16.8675H196.881L201.854 21.8887V31.9788L196.881 37H177.561Z" fill="#1E90FF"/>
<path d="M11.496 37L11.2589 37.2326L11.3566 37.3321H11.496V37ZM6.57049 31.9788H6.2384V32.1145L6.33342 32.2114L6.57049 31.9788ZM6.57049 6.77733L6.33566 6.54251L6.2384 6.63977V6.77733H6.57049ZM11.5917 1.75616V1.42407H11.4541L11.3568 1.52134L11.5917 1.75616ZM28.3289 1.75616L28.5637 1.52134L28.4664 1.42407H28.3289V1.75616ZM33.2066 6.63387L33.4434 6.86667L33.6742 6.63187L33.4414 6.39904L33.2066 6.63387ZM30.433 9.45529L30.1982 9.69011L30.435 9.92695L30.6698 9.68809L30.433 9.45529ZM26.6074 5.62963L26.8422 5.39481L26.7449 5.29755H26.6074V5.62963ZM13.5523 5.62963V5.29755H13.4148L13.3175 5.39481L13.5523 5.62963ZM10.9222 8.25977L10.6873 8.02495L10.5901 8.12222V8.25977H10.9222ZM10.9222 30.4964H10.5901V30.6339L10.6873 30.7312L10.9222 30.4964ZM13.5523 33.1265L13.3175 33.3613L13.4148 33.4586H13.5523V33.1265ZM24.1207 33.1265V33.4586H24.2512L24.3468 33.3697L24.1207 33.1265ZM29.5722 28.0575L29.7984 28.3007L29.9043 28.2022V28.0575H29.5722ZM29.5722 22.3191H29.9043V21.987H29.5722V22.3191ZM21.4427 22.3191H21.1106V22.6511H21.4427V22.3191ZM21.4427 18.4934V18.1613H21.1106V18.4934H21.4427ZM33.2066 18.4934H33.5387V18.1613H33.2066V18.4934ZM33.2066 37V37.3321H33.5387V37H33.2066ZM29.5722 37H29.2401V37.3321H29.5722V37ZM29.5722 32.9352H29.9043V32.1706L29.3455 32.6926L29.5722 32.9352ZM25.2206 37V37.3321H25.3515L25.4472 37.2427L25.2206 37ZM11.7331 36.7674L6.80755 31.7463L6.33342 32.2114L11.2589 37.2326L11.7331 36.7674ZM6.90257 31.9788V6.77733H6.2384V31.9788H6.90257ZM6.80531 7.01215L11.8265 1.99098L11.3568 1.52134L6.33566 6.54251L6.80531 7.01215ZM11.5917 2.08825H28.3289V1.42407H11.5917V2.08825ZM28.0941 1.99098L32.9718 6.86869L33.4414 6.39904L28.5637 1.52134L28.0941 1.99098ZM32.9698 6.40106L30.1962 9.22248L30.6698 9.68809L33.4434 6.86667L32.9698 6.40106ZM30.6678 9.22047L26.8422 5.39481L26.3725 5.86446L30.1982 9.69011L30.6678 9.22047ZM26.6074 5.29755H13.5523V5.96172H26.6074V5.29755ZM13.3175 5.39481L10.6873 8.02495L11.157 8.49459L13.7871 5.86446L13.3175 5.39481ZM10.5901 8.25977V30.4964H11.2543V8.25977H10.5901ZM10.6873 30.7312L13.3175 33.3613L13.7871 32.8917L11.157 30.2616L10.6873 30.7312ZM13.5523 33.4586H24.1207V32.7944H13.5523V33.4586ZM24.3468 33.3697L29.7984 28.3007L29.3461 27.8143L23.8945 32.8833L24.3468 33.3697ZM29.9043 28.0575V22.3191H29.2401V28.0575H29.9043ZM29.5722 21.987H21.4427V22.6511H29.5722V21.987ZM21.7748 22.3191V18.4934H21.1106V22.3191H21.7748ZM21.4427 18.8255H33.2066V18.1613H21.4427V18.8255ZM32.8745 18.4934V37H33.5387V18.4934H32.8745ZM33.2066 36.6679H29.5722V37.3321H33.2066V36.6679ZM29.9043 37V32.9352H29.2401V37H29.9043ZM29.3455 32.6926L24.9939 36.7573L25.4472 37.2427L29.7989 33.1779L29.3455 32.6926ZM25.2206 36.6679H11.496V37.3321H25.2206V36.6679ZM37.9857 37L37.6711 36.8937L37.523 37.3321H37.9857V37ZM49.893 1.75616V1.42407H49.6547L49.5784 1.64986L49.893 1.75616ZM56.6357 1.75616L56.9504 1.64986L56.8741 1.42407H56.6357V1.75616ZM68.5431 37V37.3321H69.0058L68.8577 36.8937L68.5431 37ZM64.0001 37L63.6846 37.1035L63.7596 37.3321H64.0001V37ZM60.9874 27.8184L61.303 27.7149L61.228 27.4863H60.9874V27.8184ZM45.5414 27.8184V27.4863H45.2996L45.2253 27.7164L45.5414 27.8184ZM42.5765 37V37.3321H42.8182L42.8925 37.102L42.5765 37ZM46.8325 23.9928L46.5166 23.8903L46.3756 24.3249H46.8325V23.9928ZM59.7441 23.9928V24.3249H60.2022L60.0597 23.8895L59.7441 23.9928ZM53.8143 5.86874L54.13 5.76547L54.0551 5.53665H53.8143V5.86874ZM52.7145 5.86874V5.53665H52.4731L52.3986 5.76623L52.7145 5.86874ZM38.3003 37.1063L50.2076 1.86245L49.5784 1.64986L37.6711 36.8937L38.3003 37.1063ZM49.893 2.08825H56.6357V1.42407H49.893V2.08825ZM56.3211 1.86245L68.2285 37.1063L68.8577 36.8937L56.9504 1.64986L56.3211 1.86245ZM68.5431 36.6679H64.0001V37.3321H68.5431V36.6679ZM64.3157 36.8965L61.303 27.7149L60.6719 27.922L63.6846 37.1035L64.3157 36.8965ZM60.9874 27.4863H45.5414V28.1505H60.9874V27.4863ZM45.2253 27.7164L42.2604 36.898L42.8925 37.102L45.8574 27.9205L45.2253 27.7164ZM42.5765 36.6679H37.9857V37.3321H42.5765V36.6679ZM46.8325 24.3249H59.7441V23.6607H46.8325V24.3249ZM60.0597 23.8895L54.13 5.76547L53.4987 5.972L59.4285 24.096L60.0597 23.8895ZM53.8143 5.53665H52.7145V6.20083H53.8143V5.53665ZM52.3986 5.76623L46.5166 23.8903L47.1484 24.0953L53.0303 5.97125L52.3986 5.76623ZM73.3726 37H73.0405V37.3321H73.3726V37ZM73.3726 1.75616V1.42407H73.0405V1.75616H73.3726ZM79.3024 1.75616L79.6114 1.63445L79.5285 1.42407H79.3024V1.75616ZM90.3968 29.9225L90.0878 30.0442L90.3961 30.827L90.7056 30.0447L90.3968 29.9225ZM101.539 1.75616V1.42407H101.313L101.23 1.634L101.539 1.75616ZM107.517 1.75616H107.849V1.42407H107.517V1.75616ZM107.517 37V37.3321H107.849V37H107.517ZM103.117 37H102.785V37.3321H103.117V37ZM103.117 8.40323H103.449L102.809 8.27954L103.117 8.40323ZM91.6401 37V37.3321H91.8647L91.9483 37.1237L91.6401 37ZM89.2013 37L88.8931 37.1239L88.9768 37.3321H89.2013V37ZM77.7243 8.45105L78.0324 8.32719L77.3922 8.45105H77.7243ZM77.7243 37V37.3321H78.0564V37H77.7243ZM73.7047 37V1.75616H73.0405V37H73.7047ZM73.3726 2.08825H79.3024V1.42407H73.3726V2.08825ZM78.9934 1.87786L90.0878 30.0442L90.7058 29.8008L79.6114 1.63445L78.9934 1.87786ZM90.7056 30.0447L101.848 1.87832L101.23 1.634L90.088 29.8004L90.7056 30.0447ZM101.539 2.08825H107.517V1.42407H101.539V2.08825ZM107.184 1.75616V37H107.849V1.75616H107.184ZM107.517 36.6679H103.117V37.3321H107.517V36.6679ZM103.449 37V8.40323H102.785V37H103.449ZM102.809 8.27954L91.3319 36.8763L91.9483 37.1237L103.425 8.52692L102.809 8.27954ZM91.6401 36.6679H89.2013V37.3321H91.6401V36.6679ZM89.5094 36.8761L78.0324 8.32719L77.4162 8.57492L88.8931 37.1239L89.5094 36.8761ZM77.3922 8.45105V37H78.0564V8.45105H77.3922ZM77.7243 36.6679H73.3726V37.3321H77.7243V36.6679ZM115.776 37H115.444V37.3321H115.776V37ZM115.776 1.75616V1.42407H115.444V1.75616H115.776ZM139.017 1.75616H139.349V1.42407H139.017V1.75616ZM139.017 5.77309V6.10518H139.349V5.77309H139.017ZM120.128 5.77309V5.44101H119.796V5.77309H120.128ZM120.128 16.4849H119.796V16.817H120.128V16.4849ZM137.008 16.4849H137.341V16.1528H137.008V16.4849ZM137.008 20.454V20.7861H137.341V20.454H137.008ZM120.128 20.454V20.122H119.796V20.454H120.128ZM120.128 32.9831H119.796V33.3152H120.128V32.9831ZM139.017 32.9831H139.349V32.651H139.017V32.9831ZM139.017 37V37.3321H139.349V37H139.017ZM116.108 37V1.75616H115.444V37H116.108ZM115.776 2.08825H139.017V1.42407H115.776V2.08825ZM138.685 1.75616V5.77309H139.349V1.75616H138.685ZM139.017 5.44101H120.128V6.10518H139.017V5.44101ZM119.796 5.77309V16.4849H120.46V5.77309H119.796ZM120.128 16.817H137.008V16.1528H120.128V16.817ZM136.676 16.4849V20.454H137.341V16.4849H136.676ZM137.008 20.122H120.128V20.7861H137.008V20.122ZM119.796 20.454V32.9831H120.46V20.454H119.796ZM120.128 33.3152H139.017V32.651H120.128V33.3152ZM138.685 32.9831V37H139.349V32.9831H138.685ZM139.017 36.6679H115.776V37.3321H139.017V36.6679ZM145.664 37H145.332V37.3321H145.664V37ZM145.664 1.75616V1.42407H145.332V1.75616H145.664ZM164.936 1.75616L165.172 1.52246L165.074 1.42407H164.936V1.75616ZM169.909 6.77733H170.241V6.6407L170.145 6.54363L169.909 6.77733ZM169.909 18.0152L170.145 18.2489L170.241 18.1518V18.0152H169.909ZM164.936 23.0364V23.3684H165.074L165.172 23.2701L164.936 23.0364ZM164.792 23.0364V22.7043H164.276L164.49 23.174L164.792 23.0364ZM171.152 37V37.3321H171.669L171.455 36.8623L171.152 37ZM166.323 37L166.02 37.1359L166.108 37.3321H166.323V37ZM160.058 23.0364L160.361 22.9004L160.273 22.7043H160.058V23.0364ZM150.016 23.0364V22.7043H149.684V23.0364H150.016ZM150.016 37V37.3321H150.348V37H150.016ZM150.016 19.1629H149.684V19.495H150.016V19.1629ZM162.975 19.1629V19.495H163.114L163.212 19.3955L162.975 19.1629ZM165.557 16.5327L165.794 16.7654L165.89 16.6685V16.5327H165.557ZM165.557 8.25977H165.89V8.124L165.794 8.02711L165.557 8.25977ZM162.975 5.62963L163.212 5.39698L163.114 5.29755H162.975V5.62963ZM150.016 5.62963V5.29755H149.684V5.62963H150.016ZM145.996 37V1.75616H145.332V37H145.996ZM145.664 2.08825H164.936V1.42407H145.664V2.08825ZM164.7 1.98985L169.673 7.01102L170.145 6.54363L165.172 1.52246L164.7 1.98985ZM169.577 6.77733V18.0152H170.241V6.77733H169.577ZM169.673 17.7815L164.7 22.8027L165.172 23.2701L170.145 18.2489L169.673 17.7815ZM164.936 22.7043H164.792V23.3684H164.936V22.7043ZM164.49 23.174L170.85 37.1377L171.455 36.8623L165.095 22.8987L164.49 23.174ZM171.152 36.6679H166.323V37.3321H171.152V36.6679ZM166.626 36.8641L160.361 22.9004L159.755 23.1723L166.02 37.1359L166.626 36.8641ZM160.058 22.7043H150.016V23.3684H160.058V22.7043ZM149.684 23.0364V37H150.348V23.0364H149.684ZM150.016 36.6679H145.664V37.3321H150.016V36.6679ZM150.016 19.495H162.975V18.8308H150.016V19.495ZM163.212 19.3955L165.794 16.7654L165.32 16.3001L162.738 18.9302L163.212 19.3955ZM165.89 16.5327V8.25977H165.225V16.5327H165.89ZM165.794 8.02711L163.212 5.39698L162.738 5.86229L165.32 8.49243L165.794 8.02711ZM162.975 5.29755H150.016V5.96172H162.975V5.29755ZM149.684 5.62963V19.1629H150.348V5.62963H149.684ZM177.561 37H177.229V37.3321H177.561V37ZM177.561 32.9831V32.651H177.229V32.9831H177.561ZM194.92 32.9831V33.3152H195.059L195.157 33.2157L194.92 32.9831ZM197.502 30.3529L197.739 30.5856L197.834 30.4887V30.3529H197.502ZM197.502 23.3233H197.834V23.1875L197.739 23.0906L197.502 23.3233ZM194.92 20.6931L195.157 20.4605L195.059 20.3611H194.92V20.6931ZM181.291 20.6931L181.056 20.928L181.154 21.0252H181.291V20.6931ZM176.318 15.7198H175.986V15.8574L176.083 15.9546L176.318 15.7198ZM176.318 6.77733L176.082 6.54363L175.986 6.6407V6.77733H176.318ZM181.291 1.75616V1.42407H181.153L181.055 1.52246L181.291 1.75616ZM200.037 1.75616H200.369V1.42407H200.037V1.75616ZM200.037 5.77309V6.10518H200.369V5.77309H200.037ZM183.252 5.77309V5.44101H183.114L183.017 5.53827L183.252 5.77309ZM180.622 8.40323L180.387 8.16841L180.288 8.26681L180.29 8.40595L180.622 8.40323ZM180.67 14.2374L180.337 14.2401L180.339 14.3743L180.433 14.47L180.67 14.2374ZM183.252 16.8675L183.015 17.1002L183.112 17.1996H183.252V16.8675ZM196.881 16.8675L197.117 16.6338L197.019 16.5354H196.881V16.8675ZM201.854 21.8887H202.186V21.752L202.09 21.655L201.854 21.8887ZM201.854 31.9788L202.09 32.2125L202.186 32.1155V31.9788H201.854ZM196.881 37V37.3321H197.019L197.117 37.2337L196.881 37ZM177.893 37V32.9831H177.229V37H177.893ZM177.561 33.3152H194.92V32.651H177.561V33.3152ZM195.157 33.2157L197.739 30.5856L197.265 30.1203L194.683 32.7504L195.157 33.2157ZM197.834 30.3529V23.3233H197.17V30.3529H197.834ZM197.739 23.0906L195.157 20.4605L194.683 20.9258L197.265 23.5559L197.739 23.0906ZM194.92 20.3611H181.291V21.0252H194.92V20.3611ZM181.526 20.4583L176.553 15.485L176.083 15.9546L181.056 20.928L181.526 20.4583ZM176.65 15.7198V6.77733H175.986V15.7198H176.65ZM176.554 7.01102L181.527 1.98985L181.055 1.52246L176.082 6.54363L176.554 7.01102ZM181.291 2.08825H200.037V1.42407H181.291V2.08825ZM199.705 1.75616V5.77309H200.369V1.75616H199.705ZM200.037 5.44101H183.252V6.10518H200.037V5.44101ZM183.017 5.53827L180.387 8.16841L180.857 8.63805L183.487 6.00792L183.017 5.53827ZM180.29 8.40595L180.337 14.2401L181.002 14.2346L180.954 8.40051L180.29 8.40595ZM180.433 14.47L183.015 17.1002L183.489 16.6348L180.906 14.0047L180.433 14.47ZM183.252 17.1996H196.881V16.5354H183.252V17.1996ZM196.645 17.1012L201.618 22.1224L202.09 21.655L197.117 16.6338L196.645 17.1012ZM201.522 21.8887V31.9788H202.186V21.8887H201.522ZM201.618 31.7451L196.645 36.7663L197.117 37.2337L202.09 32.2125L201.618 31.7451ZM196.881 36.6679H177.561V37.3321H196.881V36.6679Z" fill="#1E90FF"/>
</g>
<g style="mix-blend-mode:lighten" filter="url(#filter2_d)">
<path d="M14.7475 40.2515L9.82195 35.2303V10.0288L14.8431 5.00762H31.5804L36.4581 9.88533L33.6845 12.7068L29.8588 8.8811H16.8038L14.1736 11.5112V33.7479L16.8038 36.378H27.3721L32.8237 31.309V25.5705H24.6942V21.7449H36.4581V40.2515H32.8237V36.1867L28.472 40.2515H14.7475ZM41.2371 40.2515L53.1445 5.00762H59.8872L71.7946 40.2515H67.2516L64.2389 31.0699H48.7928L45.8279 40.2515H41.2371ZM50.084 27.2442H62.9956L57.0658 9.1202H55.9659L50.084 27.2442ZM76.6241 40.2515V5.00762H82.5538L93.6482 33.174L104.79 5.00762H110.768V40.2515H106.369V11.6547L94.8916 40.2515H92.4527L80.9758 11.7025V40.2515H76.6241ZM119.028 40.2515V5.00762H142.268V9.02456H123.379V19.7364H140.26V23.7055H123.379V36.2345H142.268V40.2515H119.028ZM148.915 40.2515V5.00762H168.187L173.161 10.0288V21.2667L168.187 26.2878H168.044L174.404 40.2515H169.574L163.31 26.2878H153.267V40.2515H148.915ZM153.267 22.4144H166.227L168.809 19.7842V11.5112L166.227 8.8811H153.267V22.4144ZM180.813 40.2515V36.2345H198.172L200.754 33.6044V26.5748L198.172 23.9446H184.543L179.569 18.9713V10.0288L184.543 5.00762H203.288V9.02456H186.503L183.873 11.6547L183.921 17.4888L186.503 20.119H200.132L205.106 25.1401V35.2303L200.132 40.2515H180.813Z" fill="#FF4757"/>
<path d="M14.7475 40.2515L14.5104 40.484L14.6081 40.5836H14.7475V40.2515ZM9.82195 35.2303H9.48986V35.366L9.58488 35.4628L9.82195 35.2303ZM9.82195 10.0288L9.58713 9.79397L9.48986 9.89124V10.0288H9.82195ZM14.8431 5.00762V4.67553H14.7056L14.6083 4.7728L14.8431 5.00762ZM31.5804 5.00762L31.8152 4.7728L31.7179 4.67553H31.5804V5.00762ZM36.4581 9.88533L36.6949 10.1181L36.9257 9.88333L36.6929 9.65051L36.4581 9.88533ZM33.6845 12.7068L33.4496 12.9416L33.6865 13.1784L33.9213 12.9396L33.6845 12.7068ZM29.8588 8.8811L30.0936 8.64628L29.9964 8.54901H29.8588V8.8811ZM16.8038 8.8811V8.54901H16.6662L16.5689 8.64628L16.8038 8.8811ZM14.1736 11.5112L13.9388 11.2764L13.8415 11.3737V11.5112H14.1736ZM14.1736 33.7479H13.8415V33.8854L13.9388 33.9827L14.1736 33.7479ZM16.8038 36.378L16.5689 36.6128L16.6662 36.7101H16.8038V36.378ZM27.3721 36.378V36.7101H27.5027L27.5983 36.6212L27.3721 36.378ZM32.8237 31.309L33.0498 31.5522L33.1558 31.4537V31.309H32.8237ZM32.8237 25.5705H33.1558V25.2384H32.8237V25.5705ZM24.6942 25.5705H24.3621V25.9026H24.6942V25.5705ZM24.6942 21.7449V21.4128H24.3621V21.7449H24.6942ZM36.4581 21.7449H36.7902V21.4128H36.4581V21.7449ZM36.4581 40.2515V40.5836H36.7902V40.2515H36.4581ZM32.8237 40.2515H32.4916V40.5836H32.8237V40.2515ZM32.8237 36.1867H33.1558V35.4221L32.597 35.944L32.8237 36.1867ZM28.472 40.2515V40.5836H28.603L28.6987 40.4942L28.472 40.2515ZM14.9845 40.0189L10.059 34.9977L9.58488 35.4628L14.5104 40.484L14.9845 40.0189ZM10.154 35.2303V10.0288H9.48986V35.2303H10.154ZM10.0568 10.2636L15.0779 5.24244L14.6083 4.7728L9.58713 9.79397L10.0568 10.2636ZM14.8431 5.33971H31.5804V4.67553H14.8431V5.33971ZM31.3455 5.24244L36.2232 10.1202L36.6929 9.65051L31.8152 4.7728L31.3455 5.24244ZM36.2212 9.65253L33.4477 12.4739L33.9213 12.9396L36.6949 10.1181L36.2212 9.65253ZM33.9193 12.4719L30.0936 8.64628L29.624 9.11592L33.4496 12.9416L33.9193 12.4719ZM29.8588 8.54901H16.8038V9.21319H29.8588V8.54901ZM16.5689 8.64628L13.9388 11.2764L14.4085 11.7461L17.0386 9.11592L16.5689 8.64628ZM13.8415 11.5112V33.7479H14.5057V11.5112H13.8415ZM13.9388 33.9827L16.5689 36.6128L17.0386 36.1432L14.4085 33.513L13.9388 33.9827ZM16.8038 36.7101H27.3721V36.0459H16.8038V36.7101ZM27.5983 36.6212L33.0498 31.5522L32.5976 31.0658L27.146 36.1348L27.5983 36.6212ZM33.1558 31.309V25.5705H32.4916V31.309H33.1558ZM32.8237 25.2384H24.6942V25.9026H32.8237V25.2384ZM25.0263 25.5705V21.7449H24.3621V25.5705H25.0263ZM24.6942 22.0769H36.4581V21.4128H24.6942V22.0769ZM36.126 21.7449V40.2515H36.7902V21.7449H36.126ZM36.4581 39.9194H32.8237V40.5836H36.4581V39.9194ZM33.1558 40.2515V36.1867H32.4916V40.2515H33.1558ZM32.597 35.944L28.2453 40.0088L28.6987 40.4942L33.0504 36.4294L32.597 35.944ZM28.472 39.9194H14.7475V40.5836H28.472V39.9194ZM41.2371 40.2515L40.9225 40.1452L40.7744 40.5836H41.2371V40.2515ZM53.1445 5.00762V4.67553H52.9062L52.8299 4.90133L53.1445 5.00762ZM59.8872 5.00762L60.2018 4.90133L60.1255 4.67553H59.8872V5.00762ZM71.7946 40.2515V40.5836H72.2573L72.1092 40.1452L71.7946 40.2515ZM67.2516 40.2515L66.9361 40.355L67.0111 40.5836H67.2516V40.2515ZM64.2389 31.0699L64.5544 30.9664L64.4794 30.7378H64.2389V31.0699ZM48.7928 31.0699V30.7378H48.5511L48.4768 30.9678L48.7928 31.0699ZM45.8279 40.2515V40.5836H46.0697L46.144 40.3535L45.8279 40.2515ZM50.084 27.2442L49.7681 27.1417L49.6271 27.5763H50.084V27.2442ZM62.9956 27.2442V27.5763H63.4536L63.3112 27.141L62.9956 27.2442ZM57.0658 9.1202L57.3814 9.01694L57.3066 8.78811H57.0658V9.1202ZM55.9659 9.1202V8.78811H55.7246L55.65 9.01769L55.9659 9.1202ZM41.5518 40.3578L53.4591 5.11392L52.8299 4.90133L40.9225 40.1452L41.5518 40.3578ZM53.1445 5.33971H59.8872V4.67553H53.1445V5.33971ZM59.5726 5.11392L71.4799 40.3578L72.1092 40.1452L60.2018 4.90133L59.5726 5.11392ZM71.7946 39.9194H67.2516V40.5836H71.7946V39.9194ZM67.5671 40.1479L64.5544 30.9664L63.9234 31.1734L66.9361 40.355L67.5671 40.1479ZM64.2389 30.7378H48.7928V31.402H64.2389V30.7378ZM48.4768 30.9678L45.5119 40.1494L46.144 40.3535L49.1088 31.1719L48.4768 30.9678ZM45.8279 39.9194H41.2371V40.5836H45.8279V39.9194ZM50.084 27.5763H62.9956V26.9122H50.084V27.5763ZM63.3112 27.141L57.3814 9.01694L56.7502 9.22347L62.6799 27.3475L63.3112 27.141ZM57.0658 8.78811H55.9659V9.45229H57.0658V8.78811ZM55.65 9.01769L49.7681 27.1417L50.3998 27.3468L56.2818 9.22271L55.65 9.01769ZM76.6241 40.2515H76.292V40.5836H76.6241V40.2515ZM76.6241 5.00762V4.67553H76.292V5.00762H76.6241ZM82.5538 5.00762L82.8628 4.88592L82.78 4.67553H82.5538V5.00762ZM93.6482 33.174L93.3393 33.2957L93.6476 34.0785L93.957 33.2962L93.6482 33.174ZM104.79 5.00762V4.67553H104.565L104.482 4.88546L104.79 5.00762ZM110.768 5.00762H111.1V4.67553H110.768V5.00762ZM110.768 40.2515V40.5836H111.1V40.2515H110.768ZM106.369 40.2515H106.036V40.5836H106.369V40.2515ZM106.369 11.6547H106.701L106.06 11.531L106.369 11.6547ZM94.8916 40.2515V40.5836H95.1161L95.1998 40.3752L94.8916 40.2515ZM92.4527 40.2515L92.1446 40.3753L92.2283 40.5836H92.4527V40.2515ZM80.9758 11.7025L81.2839 11.5787L80.6437 11.7025H80.9758ZM80.9758 40.2515V40.5836H81.3078V40.2515H80.9758ZM76.9562 40.2515V5.00762H76.292V40.2515H76.9562ZM76.6241 5.33971H82.5538V4.67553H76.6241V5.33971ZM82.2449 5.12933L93.3393 33.2957L93.9572 33.0523L82.8628 4.88592L82.2449 5.12933ZM93.957 33.2962L105.099 5.12978L104.482 4.88546L93.3394 33.0518L93.957 33.2962ZM104.79 5.33971H110.768V4.67553H104.79V5.33971ZM110.436 5.00762V40.2515H111.1V5.00762H110.436ZM110.768 39.9194H106.369V40.5836H110.768V39.9194ZM106.701 40.2515V11.6547H106.036V40.2515H106.701ZM106.06 11.531L94.5834 40.1278L95.1998 40.3752L106.677 11.7784L106.06 11.531ZM94.8916 39.9194H92.4527V40.5836H94.8916V39.9194ZM92.7608 40.1276L81.2839 11.5787L80.6676 11.8264L92.1446 40.3753L92.7608 40.1276ZM80.6437 11.7025V40.2515H81.3078V11.7025H80.6437ZM80.9758 39.9194H76.6241V40.5836H80.9758V39.9194ZM119.028 40.2515H118.695V40.5836H119.028V40.2515ZM119.028 5.00762V4.67553H118.695V5.00762H119.028ZM142.268 5.00762H142.601V4.67553H142.268V5.00762ZM142.268 9.02456V9.35665H142.601V9.02456H142.268ZM123.379 9.02456V8.69247H123.047V9.02456H123.379ZM123.379 19.7364H123.047V20.0685H123.379V19.7364ZM140.26 19.7364H140.592V19.4043H140.26V19.7364ZM140.26 23.7055V24.0376H140.592V23.7055H140.26ZM123.379 23.7055V23.3734H123.047V23.7055H123.379ZM123.379 36.2345H123.047V36.5666H123.379V36.2345ZM142.268 36.2345H142.601V35.9024H142.268V36.2345ZM142.268 40.2515V40.5836H142.601V40.2515H142.268ZM119.36 40.2515V5.00762H118.695V40.2515H119.36ZM119.028 5.33971H142.268V4.67553H119.028V5.33971ZM141.936 5.00762V9.02456H142.601V5.00762H141.936ZM142.268 8.69247H123.379V9.35665H142.268V8.69247ZM123.047 9.02456V19.7364H123.711V9.02456H123.047ZM123.379 20.0685H140.26V19.4043H123.379V20.0685ZM139.928 19.7364V23.7055H140.592V19.7364H139.928ZM140.26 23.3734H123.379V24.0376H140.26V23.3734ZM123.047 23.7055V36.2345H123.711V23.7055H123.047ZM123.379 36.5666H142.268V35.9024H123.379V36.5666ZM141.936 36.2345V40.2515H142.601V36.2345H141.936ZM142.268 39.9194H119.028V40.5836H142.268V39.9194ZM148.915 40.2515H148.583V40.5836H148.915V40.2515ZM148.915 5.00762V4.67553H148.583V5.00762H148.915ZM168.187 5.00762L168.423 4.77393L168.326 4.67553H168.187V5.00762ZM173.161 10.0288H173.493V9.89217L173.397 9.7951L173.161 10.0288ZM173.161 21.2667L173.397 21.5004L173.493 21.4033V21.2667H173.161ZM168.187 26.2878V26.6199H168.326L168.423 26.5215L168.187 26.2878ZM168.044 26.2878V25.9557H167.528L167.742 26.4255L168.044 26.2878ZM174.404 40.2515V40.5836H174.92L174.706 40.1138L174.404 40.2515ZM169.574 40.2515L169.271 40.3874L169.359 40.5836H169.574V40.2515ZM163.31 26.2878L163.613 26.1519L163.525 25.9557H163.31V26.2878ZM153.267 26.2878V25.9557H152.935V26.2878H153.267ZM153.267 40.2515V40.5836H153.599V40.2515H153.267ZM153.267 22.4144H152.935V22.7464H153.267V22.4144ZM166.227 22.4144V22.7464H166.366L166.464 22.647L166.227 22.4144ZM168.809 19.7842L169.046 20.0169L169.141 19.92V19.7842H168.809ZM168.809 11.5112H169.141V11.3755L169.046 11.2786L168.809 11.5112ZM166.227 8.8811L166.464 8.64844L166.366 8.54901H166.227V8.8811ZM153.267 8.8811V8.54901H152.935V8.8811H153.267ZM149.248 40.2515V5.00762H148.583V40.2515H149.248ZM148.915 5.33971H168.187V4.67553H148.915V5.33971ZM167.951 5.24132L172.925 10.2625L173.397 9.7951L168.423 4.77393L167.951 5.24132ZM172.828 10.0288V21.2667H173.493V10.0288H172.828ZM172.925 21.033L167.951 26.0541L168.423 26.5215L173.397 21.5004L172.925 21.033ZM168.187 25.9557H168.044V26.6199H168.187V25.9557ZM167.742 26.4255L174.102 40.3891L174.706 40.1138L168.346 26.1502L167.742 26.4255ZM174.404 39.9194H169.574V40.5836H174.404V39.9194ZM169.877 40.1155L163.613 26.1519L163.007 26.4238L169.271 40.3874L169.877 40.1155ZM163.31 25.9557H153.267V26.6199H163.31V25.9557ZM152.935 26.2878V40.2515H153.599V26.2878H152.935ZM153.267 39.9194H148.915V40.5836H153.267V39.9194ZM153.267 22.7464H166.227V22.0823H153.267V22.7464ZM166.464 22.647L169.046 20.0169L168.572 19.5516L165.99 22.1817L166.464 22.647ZM169.141 19.7842V11.5112H168.477V19.7842H169.141ZM169.046 11.2786L166.464 8.64844L165.99 9.11376L168.572 11.7439L169.046 11.2786ZM166.227 8.54901H153.267V9.21319H166.227V8.54901ZM152.935 8.8811V22.4144H153.599V8.8811H152.935ZM180.813 40.2515H180.481V40.5836H180.813V40.2515ZM180.813 36.2345V35.9024H180.481V36.2345H180.813ZM198.172 36.2345V36.5666H198.311L198.409 36.4672L198.172 36.2345ZM200.754 33.6044L200.991 33.837L201.086 33.7402V33.6044H200.754ZM200.754 26.5748H201.086V26.439L200.991 26.3421L200.754 26.5748ZM198.172 23.9446L198.409 23.712L198.311 23.6125H198.172V23.9446ZM184.543 23.9446L184.308 24.1794L184.405 24.2767H184.543V23.9446ZM179.569 18.9713H179.237V19.1088L179.334 19.2061L179.569 18.9713ZM179.569 10.0288L179.333 9.7951L179.237 9.89217V10.0288H179.569ZM184.543 5.00762V4.67553H184.404L184.307 4.77393L184.543 5.00762ZM203.288 5.00762H203.62V4.67553H203.288V5.00762ZM203.288 9.02456V9.35665H203.62V9.02456H203.288ZM186.503 9.02456V8.69247H186.366L186.268 8.78974L186.503 9.02456ZM183.873 11.6547L183.638 11.4199L183.54 11.5183L183.541 11.6574L183.873 11.6547ZM183.921 17.4888L183.589 17.4915L183.59 17.6257L183.684 17.7215L183.921 17.4888ZM186.503 20.119L186.266 20.3516L186.364 20.451H186.503V20.119ZM200.132 20.119L200.368 19.8853L200.271 19.7869H200.132V20.119ZM205.106 25.1401H205.438V25.0035L205.341 24.9064L205.106 25.1401ZM205.106 35.2303L205.341 35.464L205.438 35.3669V35.2303H205.106ZM200.132 40.2515V40.5836H200.271L200.368 40.4852L200.132 40.2515ZM181.145 40.2515V36.2345H180.481V40.2515H181.145ZM180.813 36.5666H198.172V35.9024H180.813V36.5666ZM198.409 36.4672L200.991 33.837L200.517 33.3717L197.935 36.0019L198.409 36.4672ZM201.086 33.6044V26.5748H200.422V33.6044H201.086ZM200.991 26.3421L198.409 23.712L197.935 24.1773L200.517 26.8074L200.991 26.3421ZM198.172 23.6125H184.543V24.2767H198.172V23.6125ZM184.777 23.7098L179.804 18.7364L179.334 19.2061L184.308 24.1794L184.777 23.7098ZM179.901 18.9713V10.0288H179.237V18.9713H179.901ZM179.805 10.2625L184.779 5.24132L184.307 4.77393L179.333 9.7951L179.805 10.2625ZM184.543 5.33971H203.288V4.67553H184.543V5.33971ZM202.956 5.00762V9.02456H203.62V5.00762H202.956ZM203.288 8.69247H186.503V9.35665H203.288V8.69247ZM186.268 8.78974L183.638 11.4199L184.108 11.8895L186.738 9.25938L186.268 8.78974ZM183.541 11.6574L183.589 17.4915L184.253 17.4861L184.205 11.652L183.541 11.6574ZM183.684 17.7215L186.266 20.3516L186.74 19.8863L184.158 17.2562L183.684 17.7215ZM186.503 20.451H200.132V19.7869H186.503V20.451ZM199.896 20.3527L204.87 25.3738L205.341 24.9064L200.368 19.8853L199.896 20.3527ZM204.773 25.1401V35.2303H205.438V25.1401H204.773ZM204.87 34.9966L199.896 40.0178L200.368 40.4852L205.341 35.464L204.87 34.9966ZM200.132 39.9194H180.813V40.5836H200.132V39.9194Z" fill="#FF4757"/>
</g>
<g filter="url(#filter3_d)">
<path d="M17.3487 43.503L12.4231 38.4818V13.2803L17.4443 8.25912H34.1816L39.0593 13.1368L36.2857 15.9582L32.46 12.1326H19.405L16.7748 14.7627V36.9993L19.405 39.6295H29.9733L35.4249 34.5605V28.822H27.2954V24.9964H39.0593V43.503H35.4249V39.4382L31.0732 43.503H17.3487ZM43.8383 43.503L55.7457 8.25912H62.4884L74.3958 43.503H69.8528L66.8401 34.3214H51.394L48.4291 43.503H43.8383ZM52.6852 30.4957H65.5968L59.667 12.3717H58.5671L52.6852 30.4957ZM79.2253 43.503V8.25912H85.155L96.2494 36.4255L107.392 8.25912H113.369V43.503H108.97V14.9062L97.4928 43.503H95.0539L83.577 14.954V43.503H79.2253ZM121.629 43.503V8.25912H144.87V12.2761H125.98V22.9879H142.861V26.957H125.98V39.486H144.87V43.503H121.629ZM151.517 43.503V8.25912H170.788L175.762 13.2803V24.5182L170.788 29.5393H170.645L177.005 43.503H172.175L165.911 29.5393H155.868V43.503H151.517ZM155.868 25.6658H168.828L171.41 23.0357V14.7627L168.828 12.1326H155.868V25.6658ZM183.414 43.503V39.486H200.773L203.355 36.8559V29.8262L200.773 27.1961H187.144L182.17 22.2228V13.2803L187.144 8.25912H205.89V12.2761H189.104L186.474 14.9062L186.522 20.7403L189.104 23.3705H202.733L207.707 28.3916V38.4818L202.733 43.503H183.414Z" fill="#FCFDFE"/>
<path d="M17.3487 43.503L17.1116 43.7355L17.2092 43.835H17.3487V43.503ZM12.4231 38.4818H12.0911V38.6175L12.1861 38.7143L12.4231 38.4818ZM12.4231 13.2803L12.1883 13.0455L12.0911 13.1427V13.2803H12.4231ZM17.4443 8.25912V7.92703H17.3068L17.2095 8.0243L17.4443 8.25912ZM34.1816 8.25912L34.4164 8.0243L34.3191 7.92703H34.1816V8.25912ZM39.0593 13.1368L39.2961 13.3696L39.5269 13.1348L39.2941 12.902L39.0593 13.1368ZM36.2857 15.9582L36.0508 16.1931L36.2877 16.4299L36.5225 16.1911L36.2857 15.9582ZM32.46 12.1326L32.6948 11.8978L32.5976 11.8005H32.46V12.1326ZM19.405 12.1326V11.8005H19.2674L19.1701 11.8978L19.405 12.1326ZM16.7748 14.7627L16.54 14.5279L16.4427 14.6252V14.7627H16.7748ZM16.7748 36.9993H16.4427V37.1369L16.54 37.2342L16.7748 36.9993ZM19.405 39.6295L19.1701 39.8643L19.2674 39.9616H19.405V39.6295ZM29.9733 39.6295V39.9616H30.1039L30.1995 39.8727L29.9733 39.6295ZM35.4249 34.5605L35.651 34.8037L35.757 34.7052V34.5605H35.4249ZM35.4249 28.822H35.757V28.4899H35.4249V28.822ZM27.2954 28.822H26.9633V29.1541H27.2954V28.822ZM27.2954 24.9964V24.6643H26.9633V24.9964H27.2954ZM39.0593 24.9964H39.3914V24.6643H39.0593V24.9964ZM39.0593 43.503V43.835H39.3914V43.503H39.0593ZM35.4249 43.503H35.0928V43.835H35.4249V43.503ZM35.4249 39.4382H35.757V38.6736L35.1982 39.1955L35.4249 39.4382ZM31.0732 43.503V43.835H31.2042L31.2999 43.7456L31.0732 43.503ZM17.5857 43.2704L12.6602 38.2492L12.1861 38.7143L17.1116 43.7355L17.5857 43.2704ZM12.7552 38.4818V13.2803H12.0911V38.4818H12.7552ZM12.658 13.5151L17.6791 8.49394L17.2095 8.0243L12.1883 13.0455L12.658 13.5151ZM17.4443 8.59121H34.1816V7.92703H17.4443V8.59121ZM33.9467 8.49394L38.8244 13.3716L39.2941 12.902L34.4164 8.0243L33.9467 8.49394ZM38.8224 12.904L36.0488 15.7254L36.5225 16.1911L39.2961 13.3696L38.8224 12.904ZM36.5205 15.7234L32.6948 11.8978L32.2252 12.3674L36.0508 16.1931L36.5205 15.7234ZM32.46 11.8005H19.405V12.4647H32.46V11.8005ZM19.1701 11.8978L16.54 14.5279L17.0097 14.9976L19.6398 12.3674L19.1701 11.8978ZM16.4427 14.7627V36.9993H17.1069V14.7627H16.4427ZM16.54 37.2342L19.1701 39.8643L19.6398 39.3947L17.0097 36.7645L16.54 37.2342ZM19.405 39.9616H29.9733V39.2974H19.405V39.9616ZM30.1995 39.8727L35.651 34.8037L35.1988 34.3173L29.7472 39.3863L30.1995 39.8727ZM35.757 34.5605V28.822H35.0928V34.5605H35.757ZM35.4249 28.4899H27.2954V29.1541H35.4249V28.4899ZM27.6275 28.822V24.9964H26.9633V28.822H27.6275ZM27.2954 25.3284H39.0593V24.6643H27.2954V25.3284ZM38.7272 24.9964V43.503H39.3914V24.9964H38.7272ZM39.0593 43.1709H35.4249V43.835H39.0593V43.1709ZM35.757 43.503V39.4382H35.0928V43.503H35.757ZM35.1982 39.1955L30.8465 43.2603L31.2999 43.7456L35.6516 39.6809L35.1982 39.1955ZM31.0732 43.1709H17.3487V43.835H31.0732V43.1709ZM43.8383 43.503L43.5237 43.3967L43.3756 43.835H43.8383V43.503ZM55.7457 8.25912V7.92703H55.5074L55.4311 8.15282L55.7457 8.25912ZM62.4884 8.25912L62.803 8.15282L62.7267 7.92703H62.4884V8.25912ZM74.3958 43.503V43.835H74.8585L74.7104 43.3967L74.3958 43.503ZM69.8528 43.503L69.5373 43.6065L69.6123 43.835H69.8528V43.503ZM66.8401 34.3214L67.1556 34.2179L67.0806 33.9893H66.8401V34.3214ZM51.394 34.3214V33.9893H51.1523L51.078 34.2193L51.394 34.3214ZM48.4291 43.503V43.835H48.6709L48.7451 43.605L48.4291 43.503ZM52.6852 30.4957L52.3693 30.3932L52.2283 30.8278H52.6852V30.4957ZM65.5968 30.4957V30.8278H66.0548L65.9124 30.3925L65.5968 30.4957ZM59.667 12.3717L59.9826 12.2684L59.9077 12.0396H59.667V12.3717ZM58.5671 12.3717V12.0396H58.3257L58.2512 12.2692L58.5671 12.3717ZM44.153 43.6093L56.0603 8.36541L55.4311 8.15282L43.5237 43.3967L44.153 43.6093ZM55.7457 8.59121H62.4884V7.92703H55.7457V8.59121ZM62.1738 8.36541L74.0811 43.6093L74.7104 43.3967L62.803 8.15282L62.1738 8.36541ZM74.3958 43.1709H69.8528V43.835H74.3958V43.1709ZM70.1683 43.3994L67.1556 34.2179L66.5246 34.4249L69.5373 43.6065L70.1683 43.3994ZM66.8401 33.9893H51.394V34.6535H66.8401V33.9893ZM51.078 34.2193L48.1131 43.4009L48.7451 43.605L51.71 34.4234L51.078 34.2193ZM48.4291 43.1709H43.8383V43.835H48.4291V43.1709ZM52.6852 30.8278H65.5968V30.1636H52.6852V30.8278ZM65.9124 30.3925L59.9826 12.2684L59.3514 12.475L65.2811 30.599L65.9124 30.3925ZM59.667 12.0396H58.5671V12.7038H59.667V12.0396ZM58.2512 12.2692L52.3693 30.3932L53.001 30.5982L58.883 12.4742L58.2512 12.2692ZM79.2253 43.503H78.8932V43.835H79.2253V43.503ZM79.2253 8.25912V7.92703H78.8932V8.25912H79.2253ZM85.155 8.25912L85.464 8.13741L85.3811 7.92703H85.155V8.25912ZM96.2494 36.4255L95.9405 36.5472L96.2488 37.33L96.5582 36.5477L96.2494 36.4255ZM107.392 8.25912V7.92703H107.166L107.083 8.13696L107.392 8.25912ZM113.369 8.25912H113.701V7.92703H113.369V8.25912ZM113.369 43.503V43.835H113.701V43.503H113.369ZM108.97 43.503H108.638V43.835H108.97V43.503ZM108.97 14.9062H109.302L108.662 14.7825L108.97 14.9062ZM97.4928 43.503V43.835H97.7173L97.801 43.6267L97.4928 43.503ZM95.0539 43.503L94.7458 43.6268L94.8295 43.835H95.0539V43.503ZM83.577 14.954L83.8851 14.8301L83.2449 14.954H83.577ZM83.577 43.503V43.835H83.909V43.503H83.577ZM79.5574 43.503V8.25912H78.8932V43.503H79.5574ZM79.2253 8.59121H85.155V7.92703H79.2253V8.59121ZM84.8461 8.38082L95.9405 36.5472L96.5584 36.3038L85.464 8.13741L84.8461 8.38082ZM96.5582 36.5477L107.7 8.38128L107.083 8.13696L95.9406 36.3033L96.5582 36.5477ZM107.392 8.59121H113.369V7.92703H107.392V8.59121ZM113.037 8.25912V43.503H113.701V8.25912H113.037ZM113.369 43.1709H108.97V43.835H113.369V43.1709ZM109.302 43.503V14.9062H108.638V43.503H109.302ZM108.662 14.7825L97.1846 43.3793L97.801 43.6267L109.278 15.0299L108.662 14.7825ZM97.4928 43.1709H95.0539V43.835H97.4928V43.1709ZM95.362 43.3791L83.8851 14.8301L83.2688 15.0779L94.7458 43.6268L95.362 43.3791ZM83.2449 14.954V43.503H83.909V14.954H83.2449ZM83.577 43.1709H79.2253V43.835H83.577V43.1709ZM121.629 43.503H121.297V43.835H121.629V43.503ZM121.629 8.25912V7.92703H121.297V8.25912H121.629ZM144.87 8.25912H145.202V7.92703H144.87V8.25912ZM144.87 12.2761V12.6081H145.202V12.2761H144.87ZM125.98 12.2761V11.944H125.648V12.2761H125.98ZM125.98 22.9879H125.648V23.32H125.98V22.9879ZM142.861 22.9879H143.193V22.6558H142.861V22.9879ZM142.861 26.957V27.2891H143.193V26.957H142.861ZM125.98 26.957V26.6249H125.648V26.957H125.98ZM125.98 39.486H125.648V39.8181H125.98V39.486ZM144.87 39.486H145.202V39.1539H144.87V39.486ZM144.87 43.503V43.835H145.202V43.503H144.87ZM121.961 43.503V8.25912H121.297V43.503H121.961ZM121.629 8.59121H144.87V7.92703H121.629V8.59121ZM144.538 8.25912V12.2761H145.202V8.25912H144.538ZM144.87 11.944H125.98V12.6081H144.87V11.944ZM125.648 12.2761V22.9879H126.313V12.2761H125.648ZM125.98 23.32H142.861V22.6558H125.98V23.32ZM142.529 22.9879V26.957H143.193V22.9879H142.529ZM142.861 26.6249H125.98V27.2891H142.861V26.6249ZM125.648 26.957V39.486H126.313V26.957H125.648ZM125.98 39.8181H144.87V39.1539H125.98V39.8181ZM144.538 39.486V43.503H145.202V39.486H144.538ZM144.87 43.1709H121.629V43.835H144.87V43.1709ZM151.517 43.503H151.185V43.835H151.517V43.503ZM151.517 8.25912V7.92703H151.185V8.25912H151.517ZM170.788 8.25912L171.024 8.02542L170.927 7.92703H170.788V8.25912ZM175.762 13.2803H176.094V13.1437L175.998 13.0466L175.762 13.2803ZM175.762 24.5182L175.998 24.7518L176.094 24.6548V24.5182H175.762ZM170.788 29.5393V29.8714H170.927L171.024 29.773L170.788 29.5393ZM170.645 29.5393V29.2072H170.129L170.343 29.677L170.645 29.5393ZM177.005 43.503V43.835H177.521L177.307 43.3653L177.005 43.503ZM172.175 43.503L171.872 43.6389L171.96 43.835H172.175V43.503ZM165.911 29.5393L166.214 29.4034L166.126 29.2072H165.911V29.5393ZM155.868 29.5393V29.2072H155.536V29.5393H155.868ZM155.868 43.503V43.835H156.2V43.503H155.868ZM155.868 25.6658H155.536V25.9979H155.868V25.6658ZM168.828 25.6658V25.9979H168.967L169.065 25.8985L168.828 25.6658ZM171.41 23.0357L171.647 23.2684L171.742 23.1715V23.0357H171.41ZM171.41 14.7627H171.742V14.627L171.647 14.5301L171.41 14.7627ZM168.828 12.1326L169.065 11.8999L168.967 11.8005H168.828V12.1326ZM155.868 12.1326V11.8005H155.536V12.1326H155.868ZM151.849 43.503V8.25912H151.185V43.503H151.849ZM151.517 8.59121H170.788V7.92703H151.517V8.59121ZM170.552 8.49281L175.526 13.514L175.998 13.0466L171.024 8.02542L170.552 8.49281ZM175.43 13.2803V24.5182H176.094V13.2803H175.43ZM175.526 24.2845L170.552 29.3056L171.024 29.773L175.998 24.7518L175.526 24.2845ZM170.788 29.2072H170.645V29.8714H170.788V29.2072ZM170.343 29.677L176.703 43.6406L177.307 43.3653L170.947 29.4017L170.343 29.677ZM177.005 43.1709H172.175V43.835H177.005V43.1709ZM172.478 43.367L166.214 29.4034L165.608 29.6753L171.872 43.6389L172.478 43.367ZM165.911 29.2072H155.868V29.8714H165.911V29.2072ZM155.536 29.5393V43.503H156.2V29.5393H155.536ZM155.868 43.1709H151.517V43.835H155.868V43.1709ZM155.868 25.9979H168.828V25.3338H155.868V25.9979ZM169.065 25.8985L171.647 23.2684L171.173 22.8031L168.591 25.4332L169.065 25.8985ZM171.742 23.0357V14.7627H171.078V23.0357H171.742ZM171.647 14.5301L169.065 11.8999L168.591 12.3653L171.173 14.9954L171.647 14.5301ZM168.828 11.8005H155.868V12.4647H168.828V11.8005ZM155.536 12.1326V25.6658H156.2V12.1326H155.536ZM183.414 43.503H183.082V43.835H183.414V43.503ZM183.414 39.486V39.1539H183.082V39.486H183.414ZM200.773 39.486V39.8181H200.912L201.01 39.7187L200.773 39.486ZM203.355 36.8559L203.592 37.0885L203.687 36.9917V36.8559H203.355ZM203.355 29.8262H203.687V29.6905L203.592 29.5936L203.355 29.8262ZM200.773 27.1961L201.01 26.9634L200.912 26.864H200.773V27.1961ZM187.144 27.1961L186.909 27.4309L187.006 27.5282H187.144V27.1961ZM182.171 22.2228H181.838V22.3603L181.936 22.4576L182.171 22.2228ZM182.171 13.2803L181.935 13.0466L181.838 13.1437V13.2803H182.171ZM187.144 8.25912V7.92703H187.005L186.908 8.02542L187.144 8.25912ZM205.89 8.25912H206.222V7.92703H205.89V8.25912ZM205.89 12.2761V12.6081H206.222V12.2761H205.89ZM189.104 12.2761V11.944H188.967L188.87 12.0412L189.104 12.2761ZM186.474 14.9062L186.24 14.6714L186.141 14.7698L186.142 14.9089L186.474 14.9062ZM186.522 20.7403L186.19 20.743L186.191 20.8772L186.285 20.973L186.522 20.7403ZM189.104 23.3705L188.868 23.6031L188.965 23.7025H189.104V23.3705ZM202.733 23.3705L202.969 23.1368L202.872 23.0384H202.733V23.3705ZM207.707 28.3916H208.039V28.255L207.943 28.1579L207.707 28.3916ZM207.707 38.4818L207.943 38.7155L208.039 38.6184V38.4818H207.707ZM202.733 43.503V43.835H202.872L202.969 43.7367L202.733 43.503ZM183.746 43.503V39.486H183.082V43.503H183.746ZM183.414 39.8181H200.773V39.1539H183.414V39.8181ZM201.01 39.7187L203.592 37.0885L203.118 36.6232L200.536 39.2534L201.01 39.7187ZM203.687 36.8559V29.8262H203.023V36.8559H203.687ZM203.592 29.5936L201.01 26.9634L200.536 27.4288L203.118 30.0589L203.592 29.5936ZM200.773 26.864H187.144V27.5282H200.773V26.864ZM187.379 26.9613L182.405 21.9879L181.936 22.4576L186.909 27.4309L187.379 26.9613ZM182.503 22.2228V13.2803H181.838V22.2228H182.503ZM182.406 13.514L187.38 8.49281L186.908 8.02542L181.935 13.0466L182.406 13.514ZM187.144 8.59121H205.89V7.92703H187.144V8.59121ZM205.557 8.25912V12.2761H206.222V8.25912H205.557ZM205.89 11.944H189.104V12.6081H205.89V11.944ZM188.87 12.0412L186.24 14.6714L186.709 15.141L189.339 12.5109L188.87 12.0412ZM186.142 14.9089L186.19 20.743L186.854 20.7376L186.806 14.9035L186.142 14.9089ZM186.285 20.973L188.868 23.6031L189.341 23.1378L186.759 20.5077L186.285 20.973ZM189.104 23.7025H202.733V23.0384H189.104V23.7025ZM202.497 23.6041L207.471 28.6253L207.943 28.1579L202.969 23.1368L202.497 23.6041ZM207.375 28.3916V38.4818H208.039V28.3916H207.375ZM207.471 38.2481L202.497 43.2693L202.969 43.7367L207.943 38.7155L207.471 38.2481ZM202.733 43.1709H183.414V43.835H202.733V43.1709Z" fill="#FEFEFF"/>
</g>
</g>
<defs>
<filter id="filter0_b" x="2.86832" y="-1.94601" width="208.541" height="49.1511" filterUnits="userSpaceOnUse" color-interpolation-filters="sRGB">
<feFlood flood-opacity="0" result="BackgroundImageFix"/>
<feGaussianBlur in="BackgroundImage" stdDeviation="1.68504"/>
<feComposite in2="SourceAlpha" operator="in" result="effect1_backgroundBlur"/>
<feBlend mode="normal" in="SourceGraphic" in2="effect1_backgroundBlur" result="shape"/>
</filter>
<filter id="filter1_d" x="3.5817" y="1.42407" width="201.261" height="41.2214" filterUnits="userSpaceOnUse" color-interpolation-filters="sRGB">
<feFlood flood-opacity="0" result="BackgroundImageFix"/>
<feColorMatrix in="SourceAlpha" type="matrix" values="0 0 0 0 0 0 0 0 0 0 0 0 0 0 0 0 0 0 127 0"/>
<feOffset dy="2.6567"/>
<feGaussianBlur stdDeviation="1.32835"/>
<feColorMatrix type="matrix" values="0 0 0 0 0 0 0 0 0 0 0 0 0 0 0 0 0 0 0.25 0"/>
<feBlend mode="normal" in2="BackgroundImageFix" result="effect1_dropShadow"/>
<feBlend mode="normal" in="SourceGraphic" in2="effect1_dropShadow" result="shape"/>
</filter>
<filter id="filter2_d" x="6.83316" y="4.67554" width="201.261" height="41.2214" filterUnits="userSpaceOnUse" color-interpolation-filters="sRGB">
<feFlood flood-opacity="0" result="BackgroundImageFix"/>
<feColorMatrix in="SourceAlpha" type="matrix" values="0 0 0 0 0 0 0 0 0 0 0 0 0 0 0 0 0 0 127 0"/>
<feOffset dy="2.6567"/>
<feGaussianBlur stdDeviation="1.32835"/>
<feColorMatrix type="matrix" values="0 0 0 0 0 0 0 0 0 0 0 0 0 0 0 0 0 0 0.25 0"/>
<feBlend mode="normal" in2="BackgroundImageFix" result="effect1_dropShadow"/>
<feBlend mode="normal" in="SourceGraphic" in2="effect1_dropShadow" result="shape"/>
</filter>
<filter id="filter3_d" x="9.43436" y="7.92703" width="201.261" height="41.2214" filterUnits="userSpaceOnUse" color-interpolation-filters="sRGB">
<feFlood flood-opacity="0" result="BackgroundImageFix"/>
<feColorMatrix in="SourceAlpha" type="matrix" values="0 0 0 0 0 0 0 0 0 0 0 0 0 0 0 0 0 0 127 0"/>
<feOffset dy="2.6567"/>
<feGaussianBlur stdDeviation="1.32835"/>
<feColorMatrix type="matrix" values="0 0 0 0 0 0 0 0 0 0 0 0 0 0 0 0 0 0 0.25 0"/>
<feBlend mode="normal" in2="BackgroundImageFix" result="effect1_dropShadow"/>
<feBlend mode="normal" in="SourceGraphic" in2="effect1_dropShadow" result="shape"/>
</filter>
</defs>
</svg>
