<svg width="24" height="28" viewBox="0 0 24 28" fill="none" xmlns="http://www.w3.org/2000/svg">
<path d="M7.24828 10.81V9.964H16.7523V10.81H7.24828ZM7.24828 14.77V13.924H16.7523V14.77H7.24828Z" fill="#FDFDFF"/>
<path d="M7.24828 10.81H6.24828V11.81H7.24828V10.81ZM7.24828 9.964V8.964H6.24828V9.964H7.24828ZM16.7523 9.964H17.7523V8.964H16.7523V9.964ZM16.7523 10.81V11.81H17.7523V10.81H16.7523ZM7.24828 14.77H6.24828V15.77H7.24828V14.77ZM7.24828 13.924V12.924H6.24828V13.924H7.24828ZM16.7523 13.924H17.7523V12.924H16.7523V13.924ZM16.7523 14.77V15.77H17.7523V14.77H16.7523ZM8.24828 10.81V9.964H6.24828V10.81H8.24828ZM7.24828 10.964H16.7523V8.964H7.24828V10.964ZM15.7523 9.964V10.81H17.7523V9.964H15.7523ZM16.7523 9.81H7.24828V11.81H16.7523V9.81ZM8.24828 14.77V13.924H6.24828V14.77H8.24828ZM7.24828 14.924H16.7523V12.924H7.24828V14.924ZM15.7523 13.924V14.77H17.7523V13.924H15.7523ZM16.7523 13.77H7.24828V15.77H16.7523V13.77Z" fill="#FEFEFF"/>
<path d="M7.24828 14.81V13.964H16.7523V14.81H7.24828ZM7.24828 18.77V17.924H16.7523V18.77H7.24828Z" fill="#FDFDFF"/>
<path d="M7.24828 14.81H6.24828V15.81H7.24828V14.81ZM7.24828 13.964V12.964H6.24828V13.964H7.24828ZM16.7523 13.964H17.7523V12.964H16.7523V13.964ZM16.7523 14.81V15.81H17.7523V14.81H16.7523ZM7.24828 18.77H6.24828V19.77H7.24828V18.77ZM7.24828 17.924V16.924H6.24828V17.924H7.24828ZM16.7523 17.924H17.7523V16.924H16.7523V17.924ZM16.7523 18.77V19.77H17.7523V18.77H16.7523ZM8.24828 14.81V13.964H6.24828V14.81H8.24828ZM7.24828 14.964H16.7523V12.964H7.24828V14.964ZM15.7523 13.964V14.81H17.7523V13.964H15.7523ZM16.7523 13.81H7.24828V15.81H16.7523V13.81ZM8.24828 18.77V17.924H6.24828V18.77H8.24828ZM7.24828 18.924H16.7523V16.924H7.24828V18.924ZM15.7523 17.924V18.77H17.7523V17.924H15.7523ZM16.7523 17.77H7.24828V19.77H16.7523V17.77Z" fill="#FEFEFF"/>
</svg>
