<svg width="830" height="1046" viewBox="0 0 830 1046" fill="none" xmlns="http://www.w3.org/2000/svg">
<rect width="830" height="1046" fill="white"/>
<rect width="830" height="1046" fill="#EDE9E9"/>
<g filter="url(#filter0_d)">
<rect x="181" y="243" width="468" height="559" fill="black"/>
<rect x="181.5" y="243.5" width="467" height="558" stroke="#ACACAC"/>
</g>
<rect x="285.5" y="407.5" width="266" height="57" fill="#C4C4C4" stroke="black"/>
<path d="M317.803 448V426.175H321.475L331.218 443.736V426.175H333.913V448H330.714L321.149 430.765H320.498V448H317.803ZM338.318 448V445.512H340.984V428.662H338.318V426.175H346.344V428.662H343.678V445.512H346.344V448H338.318ZM353.289 448L350.18 444.891V429.284L353.289 426.175H363.15L366.171 429.195L364.453 430.942L362.084 428.573H354.503L352.874 430.202V443.973L354.503 445.601H362.321L364.72 443.203L366.438 444.95L363.358 448H353.289ZM369.916 448V426.175H372.611V437.813L382.916 426.175H386.115L377.941 435.533L386.263 448H383.035L376.076 437.635L372.611 441.603V448H369.916Z" fill="#9A9A9A"/>
<rect x="285.5" y="482.5" width="266" height="57" fill="#C4C4C4" stroke="black"/>
<rect x="285.5" y="482.5" width="266" height="57" fill="#C4C4C4" stroke="black"/>
<rect x="285.5" y="482.5" width="266" height="57" fill="#C4C4C4" stroke="black"/>
<path d="M316.733 523V501.175H328.252L331.332 504.284V511.776L328.252 514.886H319.428V523H316.733ZM319.428 512.487H327.038L328.637 510.858V505.202L327.038 503.544L319.428 503.573V512.487ZM330.853 523L338.227 501.175H342.402L349.776 523H346.963L345.097 517.314H335.532L333.696 523H330.853ZM336.331 514.945H344.327L340.655 503.721H339.974L336.331 514.945ZM352.131 523V520.512H362.881L364.48 518.884V514.53L362.881 512.902H354.441L351.361 509.822V504.284L354.441 501.175H366.05V503.662H355.655L354.026 505.291L354.056 508.904L355.655 510.533H364.095L367.175 513.642V519.891L364.095 523H352.131ZM370.958 523V520.512H381.708L383.307 518.884V514.53L381.708 512.902H373.268L370.188 509.822V504.284L373.268 501.175H384.876V503.662H374.482L372.853 505.291L372.883 508.904L374.482 510.533H382.922L386.002 513.642V519.891L382.922 523H370.958Z" fill="#9A9A9A"/>
<rect x="285.5" y="557.5" width="266" height="57" fill="#C4C4C4" stroke="black"/>
<rect x="285.5" y="557.5" width="266" height="57" fill="#C4C4C4" stroke="black"/>
<rect x="285.5" y="557.5" width="266" height="57" fill="#B5AFAF" stroke="black"/>
<path d="M308.028 598V576.175H310.723V595.512H321.709V598H308.028ZM327.117 598L324.007 594.891V579.284L327.117 576.175H337.422L340.532 579.284V594.891L337.422 598H327.117ZM328.331 595.601H336.208L337.837 593.973V580.202L336.208 578.573H328.331L326.702 580.202V593.973L328.331 595.601ZM347.619 598L344.569 594.891V579.284L347.679 576.175H358.043L361.064 579.195L359.346 580.942L356.977 578.573H348.893L347.264 580.202V593.973L348.893 595.601H355.437L358.813 592.462V588.909H353.779V586.539H361.064V598H358.813V595.483L356.119 598H347.619ZM365.445 598V595.512H368.11V578.662H365.445V576.175H373.47V578.662H370.805V595.512H373.47V598H365.445ZM377.869 598V576.175H381.541L391.284 593.736V576.175H393.979V598H390.78L381.215 580.765H380.564V598H377.869Z" fill="#E427DD"/>
<g filter="url(#filter1_b)">
<g filter="url(#filter2_d)">
<path d="M295.326 345L288.977 338.528V306.043L295.449 299.571H317.023L323.31 305.858L319.735 309.495L314.804 304.564H297.976L294.586 307.954V336.617L297.976 340.007H311.599L318.626 333.473V326.076H308.147V321.145H323.31V345H318.626V339.761L313.017 345H295.326ZM329.471 345L344.819 299.571H353.51L368.859 345H363.003L359.12 333.165H339.21L335.388 345H329.471ZM340.874 328.234H357.517L349.874 304.872H348.456L340.874 328.234ZM375.084 345V299.571H382.728L397.028 335.877L411.39 299.571H419.095V345H413.424V308.139L398.631 345H395.487L380.693 308.201V345H375.084ZM429.742 345V299.571H459.699V304.749H435.351V318.556H457.11V323.672H435.351V339.822H459.699V345H429.742ZM468.267 345V299.571H493.108L499.519 306.043V320.529L493.108 327.001H492.923L501.121 345H494.896L486.821 327.001H473.876V345H468.267ZM473.876 322.008H490.581L493.91 318.618V307.954L490.581 304.564H473.876V322.008ZM509.382 345V339.822H531.758L535.086 336.432V327.371L531.758 323.981H514.19L507.78 317.57V306.043L514.19 299.571H538.353V304.749H516.717L513.327 308.139L513.389 315.659L516.717 319.049H534.285L540.696 325.522V338.528L534.285 345H509.382Z" fill="#1E90FF"/>
<path d="M295.326 345L295.02 345.3L295.146 345.428H295.326V345ZM288.977 338.528H288.549V338.703L288.671 338.828L288.977 338.528ZM288.977 306.043L288.674 305.741L288.549 305.866V306.043H288.977ZM295.449 299.571V299.143H295.272L295.146 299.268L295.449 299.571ZM317.023 299.571L317.326 299.268L317.2 299.143H317.023V299.571ZM323.31 305.858L323.616 306.158L323.913 305.856L323.613 305.556L323.31 305.858ZM319.735 309.495L319.433 309.798L319.738 310.103L320.041 309.795L319.735 309.495ZM314.804 304.564L315.107 304.261L314.981 304.136H314.804V304.564ZM297.976 304.564V304.136H297.799L297.674 304.261L297.976 304.564ZM294.586 307.954L294.283 307.651L294.158 307.777V307.954H294.586ZM294.586 336.617H294.158V336.794L294.283 336.92L294.586 336.617ZM297.976 340.007L297.674 340.31L297.799 340.435H297.976V340.007ZM311.599 340.007V340.435H311.767L311.89 340.321L311.599 340.007ZM318.626 333.473L318.917 333.787L319.054 333.66V333.473H318.626ZM318.626 326.076H319.054V325.648H318.626V326.076ZM308.147 326.076H307.719V326.504H308.147V326.076ZM308.147 321.145V320.717H307.719V321.145H308.147ZM323.31 321.145H323.739V320.717H323.31V321.145ZM323.31 345V345.428H323.739V345H323.31ZM318.626 345H318.198V345.428H318.626V345ZM318.626 339.761H319.054V338.775L318.334 339.448L318.626 339.761ZM313.017 345V345.428H313.185L313.309 345.313L313.017 345ZM295.631 344.7L289.282 338.228L288.671 338.828L295.02 345.3L295.631 344.7ZM289.405 338.528V306.043H288.549V338.528H289.405ZM289.279 306.346L295.752 299.874L295.146 299.268L288.674 305.741L289.279 306.346ZM295.449 299.999H317.023V299.143H295.449V299.999ZM316.72 299.874L323.008 306.161L323.613 305.556L317.326 299.268L316.72 299.874ZM323.005 305.558L319.43 309.195L320.041 309.795L323.616 306.158L323.005 305.558ZM320.038 309.192L315.107 304.261L314.501 304.867L319.433 309.798L320.038 309.192ZM314.804 304.136H297.976V304.992H314.804V304.136ZM297.674 304.261L294.283 307.651L294.889 308.257L298.279 304.867L297.674 304.261ZM294.158 307.954V336.617H295.014V307.954H294.158ZM294.283 336.92L297.674 340.31L298.279 339.704L294.889 336.314L294.283 336.92ZM297.976 340.435H311.599V339.579H297.976V340.435ZM311.89 340.321L318.917 333.787L318.334 333.16L311.307 339.694L311.89 340.321ZM319.054 333.473V326.076H318.198V333.473H319.054ZM318.626 325.648H308.147V326.504H318.626V325.648ZM308.575 326.076V321.145H307.719V326.076H308.575ZM308.147 321.573H323.31V320.717H308.147V321.573ZM322.882 321.145V345H323.739V321.145H322.882ZM323.31 344.572H318.626V345.428H323.31V344.572ZM319.054 345V339.761H318.198V345H319.054ZM318.334 339.448L312.724 344.687L313.309 345.313L318.918 340.073L318.334 339.448ZM313.017 344.572H295.326V345.428H313.017V344.572ZM329.471 345L329.065 344.863L328.874 345.428H329.471V345ZM344.819 299.571V299.143H344.512L344.414 299.434L344.819 299.571ZM353.51 299.571L353.916 299.434L353.818 299.143H353.51V299.571ZM368.859 345V345.428H369.455L369.264 344.863L368.859 345ZM363.003 345L362.596 345.133L362.693 345.428H363.003V345ZM359.12 333.165L359.526 333.032L359.43 332.737H359.12V333.165ZM339.21 333.165V332.737H338.898L338.803 333.034L339.21 333.165ZM335.388 345V345.428H335.7L335.795 345.132L335.388 345ZM340.874 328.234L340.467 328.102L340.285 328.662H340.874V328.234ZM357.517 328.234V328.662H358.107L357.924 328.101L357.517 328.234ZM349.874 304.872L350.28 304.739L350.184 304.444H349.874V304.872ZM348.456 304.872V304.444H348.145L348.049 304.74L348.456 304.872ZM329.876 345.137L345.225 299.708L344.414 299.434L329.065 344.863L329.876 345.137ZM344.819 299.999H353.51V299.143H344.819V299.999ZM353.105 299.708L368.453 345.137L369.264 344.863L353.916 299.434L353.105 299.708ZM368.859 344.572H363.003V345.428H368.859V344.572ZM363.41 344.867L359.526 333.032L358.713 333.298L362.596 345.133L363.41 344.867ZM359.12 332.737H339.21V333.593H359.12V332.737ZM338.803 333.034L334.981 344.868L335.795 345.132L339.617 333.297L338.803 333.034ZM335.388 344.572H329.471V345.428H335.388V344.572ZM340.874 328.662H357.517V327.806H340.874V328.662ZM357.924 328.101L350.28 304.739L349.467 305.005L357.11 328.367L357.924 328.101ZM349.874 304.444H348.456V305.3H349.874V304.444ZM348.049 304.74L340.467 328.102L341.281 328.366L348.863 305.004L348.049 304.74ZM375.084 345H374.656V345.428H375.084V345ZM375.084 299.571V299.143H374.656V299.571H375.084ZM382.728 299.571L383.126 299.414L383.019 299.143H382.728V299.571ZM397.028 335.877L396.63 336.034L397.027 337.043L397.426 336.035L397.028 335.877ZM411.39 299.571V299.143H411.099L410.992 299.414L411.39 299.571ZM419.095 299.571H419.523V299.143H419.095V299.571ZM419.095 345V345.428H419.523V345H419.095ZM413.424 345H412.996V345.428H413.424V345ZM413.424 308.139H413.853L413.027 307.98L413.424 308.139ZM398.631 345V345.428H398.92L399.028 345.159L398.631 345ZM395.487 345L395.09 345.16L395.198 345.428H395.487V345ZM380.693 308.201L381.091 308.041L380.265 308.201H380.693ZM380.693 345V345.428H381.121V345H380.693ZM375.512 345V299.571H374.656V345H375.512ZM375.084 299.999H382.728V299.143H375.084V299.999ZM382.329 299.728L396.63 336.034L397.426 335.72L383.126 299.414L382.329 299.728ZM397.426 336.035L411.788 299.728L410.992 299.414L396.63 335.72L397.426 336.035ZM411.39 299.999H419.095V299.143H411.39V299.999ZM418.667 299.571V345H419.523V299.571H418.667ZM419.095 344.572H413.424V345.428H419.095V344.572ZM413.853 345V308.139H412.996V345H413.853ZM413.027 307.98L398.233 344.841L399.028 345.159L413.822 308.298L413.027 307.98ZM398.631 344.572H395.487V345.428H398.631V344.572ZM395.884 344.84L381.091 308.041L380.296 308.36L395.09 345.16L395.884 344.84ZM380.265 308.201V345H381.121V308.201H380.265ZM380.693 344.572H375.084V345.428H380.693V344.572ZM429.742 345H429.314V345.428H429.742V345ZM429.742 299.571V299.143H429.314V299.571H429.742ZM459.699 299.571H460.127V299.143H459.699V299.571ZM459.699 304.749V305.177H460.127V304.749H459.699ZM435.351 304.749V304.321H434.923V304.749H435.351ZM435.351 318.556H434.923V318.984H435.351V318.556ZM457.11 318.556H457.538V318.128H457.11V318.556ZM457.11 323.672V324.1H457.538V323.672H457.11ZM435.351 323.672V323.244H434.923V323.672H435.351ZM435.351 339.822H434.923V340.25H435.351V339.822ZM459.699 339.822H460.127V339.394H459.699V339.822ZM459.699 345V345.428H460.127V345H459.699ZM430.17 345V299.571H429.314V345H430.17ZM429.742 299.999H459.699V299.143H429.742V299.999ZM459.271 299.571V304.749H460.127V299.571H459.271ZM459.699 304.321H435.351V305.177H459.699V304.321ZM434.923 304.749V318.556H435.779V304.749H434.923ZM435.351 318.984H457.11V318.128H435.351V318.984ZM456.682 318.556V323.672H457.538V318.556H456.682ZM457.11 323.244H435.351V324.1H457.11V323.244ZM434.923 323.672V339.822H435.779V323.672H434.923ZM435.351 340.25H459.699V339.394H435.351V340.25ZM459.271 339.822V345H460.127V339.822H459.271ZM459.699 344.572H429.742V345.428H459.699V344.572ZM468.267 345H467.839V345.428H468.267V345ZM468.267 299.571V299.143H467.839V299.571H468.267ZM493.108 299.571L493.412 299.27L493.287 299.143H493.108V299.571ZM499.519 306.043H499.947V305.867L499.823 305.742L499.519 306.043ZM499.519 320.529L499.823 320.83L499.947 320.705V320.529H499.519ZM493.108 327.001V327.429H493.287L493.412 327.302L493.108 327.001ZM492.923 327.001V326.573H492.258L492.534 327.178L492.923 327.001ZM501.121 345V345.428H501.787L501.511 344.823L501.121 345ZM494.896 345L494.505 345.175L494.619 345.428H494.896V345ZM486.821 327.001L487.211 326.826L487.098 326.573H486.821V327.001ZM473.876 327.001V326.573H473.448V327.001H473.876ZM473.876 345V345.428H474.304V345H473.876ZM473.876 322.008H473.448V322.436H473.876V322.008ZM490.581 322.008V322.436H490.761L490.886 322.308L490.581 322.008ZM493.91 318.618L494.215 318.918L494.338 318.793V318.618H493.91ZM493.91 307.954H494.338V307.779L494.215 307.654L493.91 307.954ZM490.581 304.564L490.886 304.264L490.761 304.136H490.581V304.564ZM473.876 304.564V304.136H473.448V304.564H473.876ZM468.695 345V299.571H467.839V345H468.695ZM468.267 299.999H493.108V299.143H468.267V299.999ZM492.804 299.872L499.215 306.344L499.823 305.742L493.412 299.27L492.804 299.872ZM499.091 306.043V320.529H499.947V306.043H499.091ZM499.215 320.228L492.804 326.7L493.412 327.302L499.823 320.83L499.215 320.228ZM493.108 326.573H492.923V327.429H493.108V326.573ZM492.534 327.178L500.732 345.177L501.511 344.823L493.313 326.824L492.534 327.178ZM501.121 344.572H494.896V345.428H501.121V344.572ZM495.286 344.825L487.211 326.826L486.43 327.176L494.505 345.175L495.286 344.825ZM486.821 326.573H473.876V327.429H486.821V326.573ZM473.448 327.001V345H474.304V327.001H473.448ZM473.876 344.572H468.267V345.428H473.876V344.572ZM473.876 322.436H490.581V321.58H473.876V322.436ZM490.886 322.308L494.215 318.918L493.604 318.318L490.275 321.708L490.886 322.308ZM494.338 318.618V307.954H493.481V318.618H494.338ZM494.215 307.654L490.886 304.264L490.275 304.864L493.604 308.254L494.215 307.654ZM490.581 304.136H473.876V304.992H490.581V304.136ZM473.448 304.564V322.008H474.304V304.564H473.448ZM509.382 345H508.954V345.428H509.382V345ZM509.382 339.822V339.394H508.954V339.822H509.382ZM531.758 339.822V340.25H531.937L532.063 340.122L531.758 339.822ZM535.086 336.432L535.392 336.732L535.514 336.607V336.432H535.086ZM535.086 327.371H535.514V327.196L535.392 327.071L535.086 327.371ZM531.758 323.981L532.063 323.681L531.937 323.553H531.758V323.981ZM514.19 323.981L513.887 324.283L514.013 324.409H514.19V323.981ZM507.78 317.57H507.352V317.747L507.477 317.873L507.78 317.57ZM507.78 306.043L507.475 305.742L507.352 305.867V306.043H507.78ZM514.19 299.571V299.143H514.012L513.886 299.27L514.19 299.571ZM538.353 299.571H538.781V299.143H538.353V299.571ZM538.353 304.749V305.177H538.781V304.749H538.353ZM516.717 304.749V304.321H516.54L516.415 304.446L516.717 304.749ZM513.327 308.139L513.025 307.836L512.898 307.963L512.899 308.143L513.327 308.139ZM513.389 315.659L512.961 315.663L512.962 315.836L513.083 315.959L513.389 315.659ZM516.717 319.049L516.412 319.349L516.538 319.477H516.717V319.049ZM534.285 319.049L534.589 318.748L534.463 318.621H534.285V319.049ZM540.696 325.522H541.124V325.346L541 325.22L540.696 325.522ZM540.696 338.528L541 338.829L541.124 338.704V338.528H540.696ZM534.285 345V345.428H534.463L534.589 345.301L534.285 345ZM509.81 345V339.822H508.954V345H509.81ZM509.382 340.25H531.758V339.394H509.382V340.25ZM532.063 340.122L535.392 336.732L534.781 336.132L531.452 339.522L532.063 340.122ZM535.514 336.432V327.371H534.658V336.432H535.514ZM535.392 327.071L532.063 323.681L531.452 324.281L534.781 327.671L535.392 327.071ZM531.758 323.553H514.19V324.409H531.758V323.553ZM514.493 323.678L508.082 317.267L507.477 317.873L513.887 324.283L514.493 323.678ZM508.208 317.57V306.043H507.352V317.57H508.208ZM508.084 306.344L514.494 299.872L513.886 299.27L507.475 305.742L508.084 306.344ZM514.19 299.999H538.353V299.143H514.19V299.999ZM537.925 299.571V304.749H538.781V299.571H537.925ZM538.353 304.321H516.717V305.177H538.353V304.321ZM516.415 304.446L513.025 307.836L513.63 308.442L517.02 305.051L516.415 304.446ZM512.899 308.143L512.961 315.663L513.817 315.656L513.755 308.136L512.899 308.143ZM513.083 315.959L516.412 319.349L517.023 318.749L513.694 315.359L513.083 315.959ZM516.717 319.477H534.285V318.621H516.717V319.477ZM533.981 319.351L540.391 325.823L541 325.22L534.589 318.748L533.981 319.351ZM540.267 325.522V338.528H541.124V325.522H540.267ZM540.391 338.227L533.981 344.699L534.589 345.301L541 338.829L540.391 338.227ZM534.285 344.572H509.382V345.428H534.285V344.572Z" fill="#1E90FF"/>
</g>
<g style="mix-blend-mode:lighten" filter="url(#filter3_d)">
<path d="M299.595 349.375L293.246 342.902V310.418L299.718 303.946H321.293L327.58 310.233L324.005 313.87L319.074 308.939H302.246L298.855 312.329V340.992L302.246 344.382H315.868L322.895 337.848V330.451H312.416V325.52H327.58V349.375H322.895V344.135L317.286 349.375H299.595ZM333.74 349.375L349.089 303.946H357.78L373.128 349.375H367.272L363.389 337.54H343.479L339.658 349.375H333.74ZM345.144 332.608H361.786L354.143 309.247H352.725L345.144 332.608ZM379.354 349.375V303.946H386.997L401.298 340.252L415.66 303.946H423.365V349.375H417.694V312.514L402.9 349.375H399.757L384.963 312.575V349.375H379.354ZM434.011 349.375V303.946H463.968V309.123H439.621V322.931H461.38V328.047H439.621V344.197H463.968V349.375H434.011ZM472.537 349.375V303.946H497.378L503.788 310.418V324.903L497.378 331.376H497.193L505.391 349.375H499.165L491.09 331.376H478.146V349.375H472.537ZM478.146 326.383H494.85L498.179 322.993V312.329L494.85 308.939H478.146V326.383ZM513.652 349.375V344.197H536.027L539.356 340.807V331.746L536.027 328.355H518.46L512.049 321.945V310.418L518.46 303.946H542.623V309.123H520.987L517.597 312.514L517.658 320.034L520.987 323.424H538.554L544.965 329.896V342.902L538.554 349.375H513.652Z" fill="#FF4757"/>
<path d="M299.595 349.375L299.29 349.674L299.415 349.803H299.595V349.375ZM293.246 342.902H292.818V343.077L292.941 343.202L293.246 342.902ZM293.246 310.418L292.944 310.115L292.818 310.241V310.418H293.246ZM299.718 303.946V303.518H299.541L299.416 303.643L299.718 303.946ZM321.293 303.946L321.595 303.643L321.47 303.518H321.293V303.946ZM327.58 310.233L327.885 310.533L328.183 310.23L327.883 309.93L327.58 310.233ZM324.005 313.87L323.702 314.172L324.007 314.478L324.31 314.17L324.005 313.87ZM319.074 308.939L319.376 308.636L319.251 308.51H319.074V308.939ZM302.246 308.939V308.51H302.068L301.943 308.636L302.246 308.939ZM298.855 312.329L298.553 312.026L298.427 312.151V312.329H298.855ZM298.855 340.992H298.427V341.169L298.553 341.294L298.855 340.992ZM302.246 344.382L301.943 344.684L302.068 344.81H302.246V344.382ZM315.868 344.382V344.81H316.036L316.16 344.695L315.868 344.382ZM322.895 337.848L323.187 338.161L323.323 338.034V337.848H322.895ZM322.895 330.451H323.323V330.023H322.895V330.451ZM312.416 330.451H311.988V330.879H312.416V330.451ZM312.416 325.52V325.092H311.988V325.52H312.416ZM327.58 325.52H328.008V325.092H327.58V325.52ZM327.58 349.375V349.803H328.008V349.375H327.58ZM322.895 349.375H322.467V349.803H322.895V349.375ZM322.895 344.135H323.323V343.15L322.603 343.822L322.895 344.135ZM317.286 349.375V349.803H317.455L317.578 349.687L317.286 349.375ZM299.901 349.075L293.552 342.603L292.941 343.202L299.29 349.674L299.901 349.075ZM293.674 342.902V310.418H292.818V342.902H293.674ZM293.549 310.721L300.021 304.248L299.416 303.643L292.944 310.115L293.549 310.721ZM299.718 304.374H321.293V303.518H299.718V304.374ZM320.99 304.248L327.277 310.536L327.883 309.93L321.595 303.643L320.99 304.248ZM327.275 309.933L323.7 313.57L324.31 314.17L327.885 310.533L327.275 309.933ZM324.307 313.567L319.376 308.636L318.771 309.241L323.702 314.172L324.307 313.567ZM319.074 308.51H302.246V309.367H319.074V308.51ZM301.943 308.636L298.553 312.026L299.158 312.631L302.548 309.241L301.943 308.636ZM298.427 312.329V340.992H299.284V312.329H298.427ZM298.553 341.294L301.943 344.684L302.548 344.079L299.158 340.689L298.553 341.294ZM302.246 344.81H315.868V343.954H302.246V344.81ZM316.16 344.695L323.187 338.161L322.604 337.534L315.577 344.068L316.16 344.695ZM323.323 337.848V330.451H322.467V337.848H323.323ZM322.895 330.023H312.416V330.879H322.895V330.023ZM312.844 330.451V325.52H311.988V330.451H312.844ZM312.416 325.948H327.58V325.092H312.416V325.948ZM327.152 325.52V349.375H328.008V325.52H327.152ZM327.58 348.947H322.895V349.803H327.58V348.947ZM323.323 349.375V344.135H322.467V349.375H323.323ZM322.603 343.822L316.994 349.062L317.578 349.687L323.187 344.448L322.603 343.822ZM317.286 348.947H299.595V349.803H317.286V348.947ZM333.74 349.375L333.335 349.238L333.144 349.803H333.74V349.375ZM349.089 303.946V303.518H348.781L348.683 303.809L349.089 303.946ZM357.78 303.946L358.185 303.809L358.087 303.518H357.78V303.946ZM373.128 349.375V349.803H373.725L373.534 349.238L373.128 349.375ZM367.272 349.375L366.866 349.508L366.962 349.803H367.272V349.375ZM363.389 337.54L363.796 337.406L363.699 337.112H363.389V337.54ZM343.479 337.54V337.112H343.168L343.072 337.408L343.479 337.54ZM339.658 349.375V349.803H339.969L340.065 349.506L339.658 349.375ZM345.144 332.608L344.736 332.476L344.555 333.037H345.144V332.608ZM361.786 332.608V333.037H362.377L362.193 332.475L361.786 332.608ZM354.143 309.247L354.55 309.114L354.453 308.819H354.143V309.247ZM352.725 309.247V308.819H352.414L352.318 309.115L352.725 309.247ZM334.146 349.512L349.494 304.083L348.683 303.809L333.335 349.238L334.146 349.512ZM349.089 304.374H357.78V303.518H349.089V304.374ZM357.374 304.083L372.723 349.512L373.534 349.238L358.185 303.809L357.374 304.083ZM373.128 348.947H367.272V349.803H373.128V348.947ZM367.679 349.241L363.796 337.406L362.982 337.673L366.866 349.508L367.679 349.241ZM363.389 337.112H343.479V337.968H363.389V337.112ZM343.072 337.408L339.25 349.243L340.065 349.506L343.887 337.671L343.072 337.408ZM339.658 348.947H333.74V349.803H339.658V348.947ZM345.144 333.037H361.786V332.18H345.144V333.037ZM362.193 332.475L354.55 309.114L353.736 309.38L361.38 332.742L362.193 332.475ZM354.143 308.819H352.725V309.675H354.143V308.819ZM352.318 309.115L344.736 332.476L345.551 332.741L353.132 309.379L352.318 309.115ZM379.354 349.375H378.925V349.803H379.354V349.375ZM379.354 303.946V303.518H378.925V303.946H379.354ZM386.997 303.946L387.395 303.789L387.288 303.518H386.997V303.946ZM401.298 340.252L400.899 340.409L401.297 341.418L401.696 340.409L401.298 340.252ZM415.66 303.946V303.518H415.369L415.262 303.788L415.66 303.946ZM423.365 303.946H423.793V303.518H423.365V303.946ZM423.365 349.375V349.803H423.793V349.375H423.365ZM417.694 349.375H417.266V349.803H417.694V349.375ZM417.694 312.514H418.122L417.297 312.354L417.694 312.514ZM402.9 349.375V349.803H403.19L403.297 349.534L402.9 349.375ZM399.757 349.375L399.359 349.534L399.467 349.803H399.757V349.375ZM384.963 312.575L385.36 312.416L384.535 312.575H384.963ZM384.963 349.375V349.803H385.391V349.375H384.963ZM379.782 349.375V303.946H378.925V349.375H379.782ZM379.354 304.374H386.997V303.518H379.354V304.374ZM386.599 304.103L400.899 340.409L401.696 340.095L387.395 303.789L386.599 304.103ZM401.696 340.409L416.058 304.103L415.262 303.788L400.899 340.094L401.696 340.409ZM415.66 304.374H423.365V303.518H415.66V304.374ZM422.937 303.946V349.375H423.793V303.946H422.937ZM423.365 348.947H417.694V349.803H423.365V348.947ZM418.122 349.375V312.514H417.266V349.375H418.122ZM417.297 312.354L402.503 349.215L403.297 349.534L418.091 312.673L417.297 312.354ZM402.9 348.947H399.757V349.803H402.9V348.947ZM400.154 349.215L385.36 312.416L384.566 312.735L399.359 349.534L400.154 349.215ZM384.535 312.575V349.375H385.391V312.575H384.535ZM384.963 348.947H379.354V349.803H384.963V348.947ZM434.011 349.375H433.583V349.803H434.011V349.375ZM434.011 303.946V303.518H433.583V303.946H434.011ZM463.968 303.946H464.397V303.518H463.968V303.946ZM463.968 309.123V309.552H464.397V309.123H463.968ZM439.621 309.123V308.695H439.192V309.123H439.621ZM439.621 322.931H439.192V323.359H439.621V322.931ZM461.38 322.931H461.808V322.503H461.38V322.931ZM461.38 328.047V328.475H461.808V328.047H461.38ZM439.621 328.047V327.619H439.192V328.047H439.621ZM439.621 344.197H439.192V344.625H439.621V344.197ZM463.968 344.197H464.397V343.769H463.968V344.197ZM463.968 349.375V349.803H464.397V349.375H463.968ZM434.439 349.375V303.946H433.583V349.375H434.439ZM434.011 304.374H463.968V303.518H434.011V304.374ZM463.54 303.946V309.123H464.397V303.946H463.54ZM463.968 308.695H439.621V309.552H463.968V308.695ZM439.192 309.123V322.931H440.049V309.123H439.192ZM439.621 323.359H461.38V322.503H439.621V323.359ZM460.952 322.931V328.047H461.808V322.931H460.952ZM461.38 327.619H439.621V328.475H461.38V327.619ZM439.192 328.047V344.197H440.049V328.047H439.192ZM439.621 344.625H463.968V343.769H439.621V344.625ZM463.54 344.197V349.375H464.397V344.197H463.54ZM463.968 348.947H434.011V349.803H463.968V348.947ZM472.537 349.375H472.108V349.803H472.537V349.375ZM472.537 303.946V303.518H472.108V303.946H472.537ZM497.378 303.946L497.682 303.644L497.556 303.518H497.378V303.946ZM503.788 310.418H504.216V310.242L504.092 310.117L503.788 310.418ZM503.788 324.903L504.092 325.205L504.216 325.08V324.903H503.788ZM497.378 331.376V331.804H497.556L497.682 331.677L497.378 331.376ZM497.193 331.376V330.948H496.527L496.803 331.553L497.193 331.376ZM505.391 349.375V349.803H506.056L505.78 349.197L505.391 349.375ZM499.165 349.375L498.775 349.55L498.888 349.803H499.165V349.375ZM491.09 331.376L491.481 331.2L491.367 330.948H491.09V331.376ZM478.146 331.376V330.948H477.718V331.376H478.146ZM478.146 349.375V349.803H478.574V349.375H478.146ZM478.146 326.383H477.718V326.811H478.146V326.383ZM494.85 326.383V326.811H495.03L495.156 326.683L494.85 326.383ZM498.179 322.993L498.484 323.292L498.607 323.168V322.993H498.179ZM498.179 312.329H498.607V312.154L498.484 312.029L498.179 312.329ZM494.85 308.939L495.156 308.639L495.03 308.51H494.85V308.939ZM478.146 308.939V308.51H477.718V308.939H478.146ZM472.965 349.375V303.946H472.108V349.375H472.965ZM472.537 304.374H497.378V303.518H472.537V304.374ZM497.073 304.247L503.484 310.719L504.092 310.117L497.682 303.644L497.073 304.247ZM503.36 310.418V324.903H504.216V310.418H503.36ZM503.484 324.602L497.073 331.074L497.682 331.677L504.092 325.205L503.484 324.602ZM497.378 330.948H497.193V331.804H497.378V330.948ZM496.803 331.553L505.001 349.552L505.78 349.197L497.582 331.198L496.803 331.553ZM505.391 348.947H499.165V349.803H505.391V348.947ZM499.556 349.199L491.481 331.2L490.7 331.551L498.775 349.55L499.556 349.199ZM491.09 330.948H478.146V331.804H491.09V330.948ZM477.718 331.376V349.375H478.574V331.376H477.718ZM478.146 348.947H472.537V349.803H478.146V348.947ZM478.146 326.811H494.85V325.955H478.146V326.811ZM495.156 326.683L498.484 323.292L497.873 322.693L494.545 326.083L495.156 326.683ZM498.607 322.993V312.329H497.751V322.993H498.607ZM498.484 312.029L495.156 308.639L494.545 309.238L497.873 312.629L498.484 312.029ZM494.85 308.51H478.146V309.367H494.85V308.51ZM477.718 308.939V326.383H478.574V308.939H477.718ZM513.652 349.375H513.224V349.803H513.652V349.375ZM513.652 344.197V343.769H513.224V344.197H513.652ZM536.027 344.197V344.625H536.207L536.333 344.497L536.027 344.197ZM539.356 340.807L539.661 341.107L539.784 340.982V340.807H539.356ZM539.356 331.746H539.784V331.57L539.661 331.446L539.356 331.746ZM536.027 328.355L536.333 328.055L536.207 327.927H536.027V328.355ZM518.46 328.355L518.157 328.658L518.282 328.783H518.46V328.355ZM512.049 321.945H511.621V322.122L511.746 322.247L512.049 321.945ZM512.049 310.418L511.745 310.117L511.621 310.242V310.418H512.049ZM518.46 303.946V303.518H518.281L518.155 303.644L518.46 303.946ZM542.623 303.946H543.051V303.518H542.623V303.946ZM542.623 309.123V309.552H543.051V309.123H542.623ZM520.987 309.123V308.695H520.81L520.684 308.821L520.987 309.123ZM517.597 312.514L517.294 312.211L517.167 312.338L517.169 312.517L517.597 312.514ZM517.658 320.034L517.23 320.037L517.232 320.21L517.353 320.334L517.658 320.034ZM520.987 323.424L520.681 323.724L520.807 323.852H520.987V323.424ZM538.554 323.424L538.859 323.123L538.733 322.996H538.554V323.424ZM544.965 329.896H545.393V329.72L545.269 329.595L544.965 329.896ZM544.965 342.902L545.269 343.204L545.393 343.079V342.902H544.965ZM538.554 349.375V349.803H538.733L538.859 349.676L538.554 349.375ZM514.08 349.375V344.197H513.224V349.375H514.08ZM513.652 344.625H536.027V343.769H513.652V344.625ZM536.333 344.497L539.661 341.107L539.05 340.507L535.722 343.897L536.333 344.497ZM539.784 340.807V331.746H538.928V340.807H539.784ZM539.661 331.446L536.333 328.055L535.722 328.655L539.05 332.045L539.661 331.446ZM536.027 327.927H518.46V328.783H536.027V327.927ZM518.762 328.053L512.352 321.642L511.746 322.247L518.157 328.658L518.762 328.053ZM512.477 321.945V310.418H511.621V321.945H512.477ZM512.353 310.719L518.764 304.247L518.155 303.644L511.745 310.117L512.353 310.719ZM518.46 304.374H542.623V303.518H518.46V304.374ZM542.195 303.946V309.123H543.051V303.946H542.195ZM542.623 308.695H520.987V309.552H542.623V308.695ZM520.684 308.821L517.294 312.211L517.899 312.816L521.29 309.426L520.684 308.821ZM517.169 312.517L517.23 320.037L518.086 320.03L518.025 312.51L517.169 312.517ZM517.353 320.334L520.681 323.724L521.292 323.124L517.964 319.734L517.353 320.334ZM520.987 323.852H538.554V322.996H520.987V323.852ZM538.25 323.725L544.661 330.198L545.269 329.595L538.859 323.123L538.25 323.725ZM544.537 329.896V342.902H545.393V329.896H544.537ZM544.661 342.601L538.25 349.073L538.859 349.676L545.269 343.204L544.661 342.601ZM538.554 348.947H513.652V349.803H538.554V348.947Z" fill="#FF4757"/>
</g>
<g filter="url(#filter4_d)">
<path d="M303.011 353.749L296.662 347.277V314.793L303.134 308.32H324.708L330.995 314.608L327.42 318.245L322.489 313.313H305.661L302.271 316.704V345.366L305.661 348.757H319.284L326.311 342.223V334.826H315.832V329.895H330.995V353.749H326.311V348.51L320.702 353.749H303.011ZM337.156 353.749L352.504 308.32H361.195L376.544 353.749H370.688L366.805 341.914H346.895L343.073 353.749H337.156ZM348.559 336.983H365.202L357.559 313.622H356.141L348.559 336.983ZM382.769 353.749V308.32H390.413L404.713 344.627L419.075 308.32H426.78V353.749H421.109V316.888L406.316 353.749H403.172L388.378 316.95V353.749H382.769ZM437.427 353.749V308.32H467.384V313.498H443.036V327.306H464.795V332.422H443.036V348.572H467.384V353.749H437.427ZM475.952 353.749V308.32H500.793L507.204 314.793V329.278L500.793 335.75H500.608L508.806 353.749H502.581L494.506 335.75H481.561V353.749H475.952ZM481.561 330.758H498.266L501.595 327.367V316.704L498.266 313.313H481.561V330.758ZM517.067 353.749V348.572H539.443L542.771 345.181V336.12L539.443 332.73H521.875L515.465 326.319V314.793L521.875 308.32H546.038V313.498H524.402L521.012 316.888L521.074 324.409L524.402 327.799H541.97L548.381 334.271V347.277L541.97 353.749H517.067Z" fill="#FCFDFE"/>
<path d="M303.011 353.749L302.705 354.049L302.831 354.177H303.011V353.749ZM296.662 347.277H296.234V347.452L296.356 347.577L296.662 347.277ZM296.662 314.793L296.359 314.49L296.234 314.615V314.793H296.662ZM303.134 308.32V307.892H302.957L302.831 308.018L303.134 308.32ZM324.708 308.32L325.011 308.018L324.885 307.892H324.708V308.32ZM330.995 314.608L331.301 314.908L331.598 314.605L331.298 314.305L330.995 314.608ZM327.42 318.245L327.118 318.547L327.423 318.852L327.726 318.545L327.42 318.245ZM322.489 313.313L322.792 313.011L322.666 312.885H322.489V313.313ZM305.661 313.313V312.885H305.484L305.359 313.011L305.661 313.313ZM302.271 316.704L301.968 316.401L301.843 316.526V316.704H302.271ZM302.271 345.366H301.843V345.544L301.968 345.669L302.271 345.366ZM305.661 348.757L305.359 349.059L305.484 349.185H305.661V348.757ZM319.284 348.757V349.185H319.452L319.575 349.07L319.284 348.757ZM326.311 342.223L326.602 342.536L326.739 342.409V342.223H326.311ZM326.311 334.826H326.739V334.398H326.311V334.826ZM315.832 334.826H315.404V335.254H315.832V334.826ZM315.832 329.895V329.467H315.404V329.895H315.832ZM330.995 329.895H331.424V329.467H330.995V329.895ZM330.995 353.749V354.177H331.424V353.749H330.995ZM326.311 353.749H325.883V354.177H326.311V353.749ZM326.311 348.51H326.739V347.524L326.019 348.197L326.311 348.51ZM320.702 353.749V354.177H320.87L320.994 354.062L320.702 353.749ZM303.316 353.45L296.967 346.977L296.356 347.577L302.705 354.049L303.316 353.45ZM297.09 347.277V314.793H296.234V347.277H297.09ZM296.964 315.095L303.437 308.623L302.831 308.018L296.359 314.49L296.964 315.095ZM303.134 308.748H324.708V307.892H303.134V308.748ZM324.405 308.623L330.693 314.91L331.298 314.305L325.011 308.018L324.405 308.623ZM330.69 314.308L327.115 317.944L327.726 318.545L331.301 314.908L330.69 314.308ZM327.723 317.942L322.792 313.011L322.186 313.616L327.118 318.547L327.723 317.942ZM322.489 312.885H305.661V313.741H322.489V312.885ZM305.359 313.011L301.968 316.401L302.574 317.006L305.964 313.616L305.359 313.011ZM301.843 316.704V345.366H302.699V316.704H301.843ZM301.968 345.669L305.359 349.059L305.964 348.454L302.574 345.064L301.968 345.669ZM305.661 349.185H319.284V348.328H305.661V349.185ZM319.575 349.07L326.602 342.536L326.019 341.909L318.992 348.443L319.575 349.07ZM326.739 342.223V334.826H325.883V342.223H326.739ZM326.311 334.398H315.832V335.254H326.311V334.398ZM316.26 334.826V329.895H315.404V334.826H316.26ZM315.832 330.323H330.995V329.467H315.832V330.323ZM330.567 329.895V353.749H331.424V329.895H330.567ZM330.995 353.321H326.311V354.177H330.995V353.321ZM326.739 353.749V348.51H325.883V353.749H326.739ZM326.019 348.197L320.409 353.437L320.994 354.062L326.603 348.823L326.019 348.197ZM320.702 353.321H303.011V354.177H320.702V353.321ZM337.156 353.749L336.75 353.612L336.559 354.177H337.156V353.749ZM352.504 308.32V307.892H352.197L352.099 308.183L352.504 308.32ZM361.195 308.32L361.601 308.183L361.503 307.892H361.195V308.32ZM376.544 353.749V354.177H377.14L376.949 353.612L376.544 353.749ZM370.688 353.749L370.281 353.883L370.378 354.177H370.688V353.749ZM366.805 341.914L367.211 341.781L367.115 341.486H366.805V341.914ZM346.895 341.914V341.486H346.583L346.488 341.783L346.895 341.914ZM343.073 353.749V354.177H343.385L343.481 353.881L343.073 353.749ZM348.559 336.983L348.152 336.851L347.97 337.411H348.559V336.983ZM365.202 336.983V337.411H365.793L365.609 336.85L365.202 336.983ZM357.559 313.622L357.965 313.488L357.869 313.193H357.559V313.622ZM356.141 313.622V313.193H355.83L355.734 313.489L356.141 313.622ZM337.561 353.886L352.91 308.457L352.099 308.183L336.75 353.612L337.561 353.886ZM352.504 308.748H361.195V307.892H352.504V308.748ZM360.79 308.457L376.138 353.886L376.949 353.612L361.601 308.183L360.79 308.457ZM376.544 353.321H370.688V354.177H376.544V353.321ZM371.095 353.616L367.211 341.781L366.398 342.048L370.281 353.883L371.095 353.616ZM366.805 341.486H346.895V342.343H366.805V341.486ZM346.488 341.783L342.666 353.618L343.481 353.881L347.302 342.046L346.488 341.783ZM343.073 353.321H337.156V354.177H343.073V353.321ZM348.559 337.411H365.202V336.555H348.559V337.411ZM365.609 336.85L357.965 313.488L357.152 313.755L364.795 337.116L365.609 336.85ZM357.559 313.193H356.141V314.05H357.559V313.193ZM355.734 313.489L348.152 336.851L348.966 337.115L356.548 313.754L355.734 313.489ZM382.769 353.749H382.341V354.177H382.769V353.749ZM382.769 308.32V307.892H382.341V308.32H382.769ZM390.413 308.32L390.811 308.164L390.704 307.892H390.413V308.32ZM404.713 344.627L404.315 344.784L404.712 345.792L405.111 344.784L404.713 344.627ZM419.075 308.32V307.892H418.784L418.677 308.163L419.075 308.32ZM426.78 308.32H427.208V307.892H426.78V308.32ZM426.78 353.749V354.177H427.208V353.749H426.78ZM421.109 353.749H420.681V354.177H421.109V353.749ZM421.109 316.888H421.538L420.712 316.729L421.109 316.888ZM406.316 353.749V354.177H406.605L406.713 353.909L406.316 353.749ZM403.172 353.749L402.775 353.909L402.883 354.177H403.172V353.749ZM388.378 316.95L388.776 316.79L387.95 316.95H388.378ZM388.378 353.749V354.177H388.806V353.749H388.378ZM383.197 353.749V308.32H382.341V353.749H383.197ZM382.769 308.748H390.413V307.892H382.769V308.748ZM390.014 308.477L404.315 344.784L405.111 344.47L390.811 308.164L390.014 308.477ZM405.111 344.784L419.473 308.478L418.677 308.163L404.315 344.469L405.111 344.784ZM419.075 308.748H426.78V307.892H419.075V308.748ZM426.352 308.32V353.749H427.208V308.32H426.352ZM426.78 353.321H421.109V354.177H426.78V353.321ZM421.538 353.749V316.888H420.681V353.749H421.538ZM420.712 316.729L405.919 353.59L406.713 353.909L421.507 317.048L420.712 316.729ZM406.316 353.321H403.172V354.177H406.316V353.321ZM403.569 353.59L388.776 316.79L387.981 317.11L402.775 353.909L403.569 353.59ZM387.95 316.95V353.749H388.806V316.95H387.95ZM388.378 353.321H382.769V354.177H388.378V353.321ZM437.427 353.749H436.999V354.177H437.427V353.749ZM437.427 308.32V307.892H436.999V308.32H437.427ZM467.384 308.32H467.812V307.892H467.384V308.32ZM467.384 313.498V313.926H467.812V313.498H467.384ZM443.036 313.498V313.07H442.608V313.498H443.036ZM443.036 327.306H442.608V327.734H443.036V327.306ZM464.795 327.306H465.223V326.878H464.795V327.306ZM464.795 332.422V332.85H465.223V332.422H464.795ZM443.036 332.422V331.994H442.608V332.422H443.036ZM443.036 348.572H442.608V349H443.036V348.572ZM467.384 348.572H467.812V348.144H467.384V348.572ZM467.384 353.749V354.177H467.812V353.749H467.384ZM437.855 353.749V308.32H436.999V353.749H437.855ZM437.427 308.748H467.384V307.892H437.427V308.748ZM466.956 308.32V313.498H467.812V308.32H466.956ZM467.384 313.07H443.036V313.926H467.384V313.07ZM442.608 313.498V327.306H443.464V313.498H442.608ZM443.036 327.734H464.795V326.878H443.036V327.734ZM464.367 327.306V332.422H465.223V327.306H464.367ZM464.795 331.994H443.036V332.85H464.795V331.994ZM442.608 332.422V348.572H443.464V332.422H442.608ZM443.036 349H467.384V348.144H443.036V349ZM466.956 348.572V353.749H467.812V348.572H466.956ZM467.384 353.321H437.427V354.177H467.384V353.321ZM475.952 353.749H475.524V354.177H475.952V353.749ZM475.952 308.32V307.892H475.524V308.32H475.952ZM500.793 308.32L501.097 308.019L500.972 307.892H500.793V308.32ZM507.204 314.793H507.632V314.617L507.508 314.491L507.204 314.793ZM507.204 329.278L507.508 329.579L507.632 329.454V329.278H507.204ZM500.793 335.75V336.178H500.972L501.097 336.052L500.793 335.75ZM500.608 335.75V335.322H499.943L500.219 335.928L500.608 335.75ZM508.806 353.749V354.177H509.472L509.196 353.572L508.806 353.749ZM502.581 353.749L502.19 353.925L502.304 354.177H502.581V353.749ZM494.506 335.75L494.896 335.575L494.783 335.322H494.506V335.75ZM481.561 335.75V335.322H481.133V335.75H481.561ZM481.561 353.749V354.177H481.989V353.749H481.561ZM481.561 330.758H481.133V331.186H481.561V330.758ZM498.266 330.758V331.186H498.446L498.571 331.057L498.266 330.758ZM501.595 327.367L501.9 327.667L502.023 327.542V327.367H501.595ZM501.595 316.704H502.023V316.529L501.9 316.404L501.595 316.704ZM498.266 313.313L498.571 313.013L498.446 312.885H498.266V313.313ZM481.561 313.313V312.885H481.133V313.313H481.561ZM476.38 353.749V308.32H475.524V353.749H476.38ZM475.952 308.748H500.793V307.892H475.952V308.748ZM500.489 308.622L506.9 315.094L507.508 314.491L501.097 308.019L500.489 308.622ZM506.776 314.793V329.278H507.632V314.793H506.776ZM506.9 328.977L500.489 335.449L501.097 336.052L507.508 329.579L506.9 328.977ZM500.793 335.322H500.608V336.178H500.793V335.322ZM500.219 335.928L508.417 353.927L509.196 353.572L500.998 335.573L500.219 335.928ZM508.806 353.321H502.581V354.177H508.806V353.321ZM502.971 353.574L494.896 335.575L494.115 335.926L502.19 353.925L502.971 353.574ZM494.506 335.322H481.561V336.178H494.506V335.322ZM481.133 335.75V353.749H481.989V335.75H481.133ZM481.561 353.321H475.952V354.177H481.561V353.321ZM481.561 331.186H498.266V330.329H481.561V331.186ZM498.571 331.057L501.9 327.667L501.289 327.067L497.96 330.458L498.571 331.057ZM502.023 327.367V316.704H501.166V327.367H502.023ZM501.9 316.404L498.571 313.013L497.96 313.613L501.289 317.003L501.9 316.404ZM498.266 312.885H481.561V313.741H498.266V312.885ZM481.133 313.313V330.758H481.989V313.313H481.133ZM517.067 353.749H516.639V354.177H517.067V353.749ZM517.067 348.572V348.144H516.639V348.572H517.067ZM539.443 348.572V349H539.622L539.748 348.872L539.443 348.572ZM542.771 345.181L543.077 345.481L543.199 345.356V345.181H542.771ZM542.771 336.12H543.199V335.945L543.077 335.82L542.771 336.12ZM539.443 332.73L539.748 332.43L539.622 332.302H539.443V332.73ZM521.875 332.73L521.572 333.033L521.698 333.158H521.875V332.73ZM515.465 326.319H515.037V326.497L515.162 326.622L515.465 326.319ZM515.465 314.793L515.16 314.491L515.037 314.617V314.793H515.465ZM521.875 308.32V307.892H521.697L521.571 308.019L521.875 308.32ZM546.038 308.32H546.466V307.892H546.038V308.32ZM546.038 313.498V313.926H546.466V313.498H546.038ZM524.402 313.498V313.07H524.225L524.1 313.196L524.402 313.498ZM521.012 316.888L520.71 316.586L520.583 316.713L520.584 316.892L521.012 316.888ZM521.074 324.409L520.646 324.412L520.647 324.585L520.768 324.708L521.074 324.409ZM524.402 327.799L524.097 328.099L524.223 328.227H524.402V327.799ZM541.97 327.799L542.274 327.498L542.148 327.371H541.97V327.799ZM548.381 334.271H548.809V334.095L548.685 333.97L548.381 334.271ZM548.381 347.277L548.685 347.578L548.809 347.453V347.277H548.381ZM541.97 353.749V354.177H542.148L542.274 354.051L541.97 353.749ZM517.495 353.749V348.572H516.639V353.749H517.495ZM517.067 349H539.443V348.144H517.067V349ZM539.748 348.872L543.077 345.481L542.466 344.882L539.137 348.272L539.748 348.872ZM543.199 345.181V336.12H542.343V345.181H543.199ZM543.077 335.82L539.748 332.43L539.137 333.03L542.466 336.42L543.077 335.82ZM539.443 332.302H521.875V333.158H539.443V332.302ZM522.178 332.427L515.767 326.017L515.162 326.622L521.572 333.033L522.178 332.427ZM515.893 326.319V314.793H515.037V326.319H515.893ZM515.769 315.094L522.179 308.622L521.571 308.019L515.16 314.491L515.769 315.094ZM521.875 308.748H546.038V307.892H521.875V308.748ZM545.61 308.32V313.498H546.466V308.32H545.61ZM546.038 313.07H524.402V313.926H546.038V313.07ZM524.1 313.196L520.71 316.586L521.315 317.191L524.705 313.801L524.1 313.196ZM520.584 316.892L520.646 324.412L521.502 324.405L521.44 316.885L520.584 316.892ZM520.768 324.708L524.097 328.099L524.708 327.499L521.379 324.109L520.768 324.708ZM524.402 328.227H541.97V327.371H524.402V328.227ZM541.666 328.1L548.076 334.572L548.685 333.97L542.274 327.498L541.666 328.1ZM547.952 334.271V347.277H548.809V334.271H547.952ZM548.076 346.976L541.666 353.448L542.274 354.051L548.685 347.578L548.076 346.976ZM541.97 353.321H517.067V354.177H541.97V353.321Z" fill="#FF4757"/>
</g>
</g>
<path d="M287.59 679L285.07 676.48V663.832L287.59 661.312H295.582L298.03 663.76L296.638 665.176L294.718 663.256H288.574L287.254 664.576V675.736L288.574 677.056H294.91L296.854 675.112L298.246 676.528L295.75 679H287.59ZM301.065 679V661.312H310.737L313.233 663.832V669.472L310.737 671.992H310.665L313.857 679H311.433L308.289 671.992H303.249V679H301.065ZM303.249 670.048H309.753L311.049 668.728V664.576L309.753 663.256H303.249V670.048ZM317.307 679V661.312H328.971V663.328H319.491V668.704H327.963V670.696H319.491V676.984H328.971V679H317.307ZM330.555 679L336.531 661.312H339.915L345.891 679H343.611L342.099 674.392H334.347L332.859 679H330.555ZM334.995 672.472H341.475L338.499 663.376H337.947L334.995 672.472ZM349.943 679V663.328H344.687V661.312H357.383V663.328H352.127V679H349.943ZM359.776 679V661.312H371.44V663.328H361.96V668.704H370.432V670.696H361.96V676.984H371.44V679H359.776ZM378.344 679L384.32 661.312H387.704L393.68 679H391.4L389.888 674.392H382.136L380.648 679H378.344ZM382.784 672.472H389.264L386.288 663.376H385.736L382.784 672.472ZM396.104 679V661.312H399.08L406.976 675.544V661.312H409.16V679H406.568L398.816 665.032H398.288V679H396.104ZM416.899 679L422.875 661.312H426.259L432.235 679H429.955L428.443 674.392H420.691L419.203 679H416.899ZM421.339 672.472H427.819L424.843 663.376H424.291L421.339 672.472ZM436.558 679L434.038 676.48V663.832L436.558 661.312H444.55L446.998 663.76L445.606 665.176L443.686 663.256H437.542L436.222 664.576V675.736L437.542 677.056H443.878L445.822 675.112L447.214 676.528L444.718 679H436.558ZM452.097 679L449.577 676.48V663.832L452.097 661.312H460.089L462.537 663.76L461.145 665.176L459.225 663.256H453.081L451.761 664.576V675.736L453.081 677.056H459.417L461.361 675.112L462.753 676.528L460.257 679H452.097ZM467.636 679L465.116 676.48V663.832L467.636 661.312H475.988L478.508 663.832V676.48L475.988 679H467.636ZM468.62 677.056H475.004L476.324 675.736V664.576L475.004 663.256H468.62L467.3 664.576V675.736L468.62 677.056ZM484.42 679L481.9 676.48V661.312H484.084V675.736L485.404 677.056H491.764L493.084 675.736V661.312H495.268V676.48L492.748 679H484.42ZM499.111 679V661.312H502.087L509.983 675.544V661.312H512.167V679H509.575L501.823 665.032H501.295V679H499.111ZM519.818 679V663.328H514.562V661.312H527.258V663.328H522.002V679H519.818Z" fill="#C2C2C2"/>
<path d="M288.584 731V713.312H299.984V715.328H290.768V721.04H298.856V723.032H290.768V731H288.584ZM304.5 731L301.98 728.48V715.832L304.5 713.312H312.852L315.372 715.832V728.48L312.852 731H304.5ZM305.484 729.056H311.868L313.188 727.736V716.576L311.868 715.256H305.484L304.164 716.576V727.736L305.484 729.056ZM319.1 731V713.312H328.772L331.268 715.832V721.472L328.772 723.992H328.7L331.892 731H329.468L326.324 723.992H321.284V731H319.1ZM321.284 722.048H327.788L329.084 720.728V716.576L327.788 715.256H321.284V722.048ZM337.358 731L334.886 728.48V715.832L337.406 713.312H345.806L348.254 715.76L346.862 717.176L344.942 715.256H338.39L337.07 716.576V727.736L338.39 729.056H343.694L346.43 726.512V723.632H342.35V721.712H348.254V731H346.43V728.96L344.246 731H337.358ZM354.468 731L351.948 728.48V715.832L354.468 713.312H362.82L365.34 715.832V728.48L362.82 731H354.468ZM355.452 729.056H361.836L363.156 727.736V716.576L361.836 715.256H355.452L354.132 716.576V727.736L355.452 729.056ZM372.548 731V715.328H367.292V713.312H379.988V715.328H374.732V731H372.548ZM387.701 731V713.312H397.037L399.533 715.832V721.904L397.037 724.424H389.885V731H387.701ZM389.885 722.48H396.053L397.349 721.16V716.576L396.053 715.232L389.885 715.256V722.48ZM399.145 731L405.121 713.312H408.505L414.481 731H412.201L410.689 726.392H402.937L401.449 731H399.145ZM403.585 724.472H410.065L407.089 715.376H406.537L403.585 724.472ZM416.389 731V728.984H425.101L426.397 727.664V724.136L425.101 722.816H418.261L415.765 720.32V715.832L418.261 713.312H427.669V715.328H419.245L417.925 716.648L417.949 719.576L419.245 720.896H426.085L428.581 723.416V728.48L426.085 731H416.389ZM431.647 731V728.984H440.359L441.655 727.664V724.136L440.359 722.816H433.519L431.023 720.32V715.832L433.519 713.312H442.927V715.328H434.503L433.183 716.648L433.207 719.576L434.503 720.896H441.343L443.839 723.416V728.48L441.343 731H431.647ZM450.516 726.224V723.104L455.148 719.192L455.124 716.576L453.828 715.232L449.676 715.256L447.732 717.2L446.292 715.76L448.716 713.312H454.812L457.308 715.832V720.056L452.388 724.112V726.224H450.516ZM450.396 731V728.168H452.508V731H450.396Z" fill="#C2C2C2"/>
<defs>
<filter id="filter0_d" x="177" y="243" width="476" height="567" filterUnits="userSpaceOnUse" color-interpolation-filters="sRGB">
<feFlood flood-opacity="0" result="BackgroundImageFix"/>
<feColorMatrix in="SourceAlpha" type="matrix" values="0 0 0 0 0 0 0 0 0 0 0 0 0 0 0 0 0 0 127 0"/>
<feOffset dy="4"/>
<feGaussianBlur stdDeviation="2"/>
<feColorMatrix type="matrix" values="0 0 0 0 0 0 0 0 0 0 0 0 0 0 0 0 0 0 0.53 0"/>
<feBlend mode="normal" in2="BackgroundImageFix" result="effect1_dropShadow"/>
<feBlend mode="normal" in="SourceGraphic" in2="effect1_dropShadow" result="shape"/>
</filter>
<filter id="filter1_b" x="284.205" y="294.799" width="268.948" height="63.7225" filterUnits="userSpaceOnUse" color-interpolation-filters="sRGB">
<feFlood flood-opacity="0" result="BackgroundImageFix"/>
<feGaussianBlur in="BackgroundImage" stdDeviation="2.172"/>
<feComposite in2="SourceAlpha" operator="in" result="effect1_backgroundBlur"/>
<feBlend mode="normal" in="SourceGraphic" in2="effect1_backgroundBlur" result="shape"/>
</filter>
<filter id="filter2_d" x="285.124" y="299.143" width="259.424" height="53.134" filterUnits="userSpaceOnUse" color-interpolation-filters="sRGB">
<feFlood flood-opacity="0" result="BackgroundImageFix"/>
<feColorMatrix in="SourceAlpha" type="matrix" values="0 0 0 0 0 0 0 0 0 0 0 0 0 0 0 0 0 0 127 0"/>
<feOffset dy="3.42447"/>
<feGaussianBlur stdDeviation="1.71223"/>
<feColorMatrix type="matrix" values="0 0 0 0 0 0 0 0 0 0 0 0 0 0 0 0 0 0 0.25 0"/>
<feBlend mode="normal" in2="BackgroundImageFix" result="effect1_dropShadow"/>
<feBlend mode="normal" in="SourceGraphic" in2="effect1_dropShadow" result="shape"/>
</filter>
<filter id="filter3_d" x="289.394" y="303.518" width="259.424" height="53.134" filterUnits="userSpaceOnUse" color-interpolation-filters="sRGB">
<feFlood flood-opacity="0" result="BackgroundImageFix"/>
<feColorMatrix in="SourceAlpha" type="matrix" values="0 0 0 0 0 0 0 0 0 0 0 0 0 0 0 0 0 0 127 0"/>
<feOffset dy="3.42447"/>
<feGaussianBlur stdDeviation="1.71223"/>
<feColorMatrix type="matrix" values="0 0 0 0 0 0 0 0 0 0 0 0 0 0 0 0 0 0 0.25 0"/>
<feBlend mode="normal" in2="BackgroundImageFix" result="effect1_dropShadow"/>
<feBlend mode="normal" in="SourceGraphic" in2="effect1_dropShadow" result="shape"/>
</filter>
<filter id="filter4_d" x="292.809" y="307.892" width="259.424" height="53.134" filterUnits="userSpaceOnUse" color-interpolation-filters="sRGB">
<feFlood flood-opacity="0" result="BackgroundImageFix"/>
<feColorMatrix in="SourceAlpha" type="matrix" values="0 0 0 0 0 0 0 0 0 0 0 0 0 0 0 0 0 0 127 0"/>
<feOffset dy="3.42447"/>
<feGaussianBlur stdDeviation="1.71223"/>
<feColorMatrix type="matrix" values="0 0 0 0 0 0 0 0 0 0 0 0 0 0 0 0 0 0 0.25 0"/>
<feBlend mode="normal" in2="BackgroundImageFix" result="effect1_dropShadow"/>
<feBlend mode="normal" in="SourceGraphic" in2="effect1_dropShadow" result="shape"/>
</filter>
</defs>
</svg>
